<?xml version="1.0" standalone="no"?>
<!DOCTYPE svg PUBLIC "-//W3C//DTD SVG 1.1//EN" "http://www.w3.org/Graphics/SVG/1.1/DTD/svg11.dtd" >
<svg xmlns="http://www.w3.org/2000/svg">
<metadata></metadata>
<defs>
<font id="blue_1.1regular" horiz-adv-x="0" >
<font-face units-per-em="2048" ascent="1638" descent="-410" />
<missing-glyph horiz-adv-x="402" />
<glyph />
<glyph unicode="&#xd;" d="M666 1254q-8 118 56 194q62 83 199 93q140 -12 193 -121q38 -94 24 -178q-18 -68 -58 -97l-42 49q38 28 34 112q-6 87 -81 126q-101 36 -189 -19q-66 -51 -62 -132q-1 -84 49 -139q55 -46 101 -84q60 -38 92 -108q32 -80 16 -207l-62 60q6 58 -19 118q-47 72 -137 127 q-100 76 -114 206z" />
<glyph unicode=" "  horiz-adv-x="402" />
<glyph unicode="&#x09;" horiz-adv-x="402" />
<glyph unicode="&#xa0;" horiz-adv-x="402" />
<glyph unicode="!" horiz-adv-x="2" d="M754 1064q0 38 27 65t63 27q38 0 65 -26q27 -28 27 -66t-27 -65t-65 -27q-36 0 -63 27t-27 65z" />
<glyph unicode="&#x22;" horiz-adv-x="1197" d="M48 220q-98 268 4 521q81 146 220 157q132 0 184 -82q71 -72 139 14q94 84 214 70q140 -4 207 -150q59 -158 19 -315l-65 111q-13 112 -109 179q-102 62 -205 -15q-15 -12 -27 -18q-91 -92 -191 -6q-22 25 -49 45q-88 45 -194 -13q-83 -64 -112 -174t19 -274 q38 -100 108 -147q8 59 52 83q52 26 101 0q52 -32 50 -98q-2 -56 -48 -88q-52 -18 -104 -10q-7 -32 7 -65l-48 1q-18 48 -12 94q-94 52 -160 180zM266 84q24 -12 47 -13q22 0 34 19q10 20 0 39q-10 20 -34 21q-23 -2 -35 -21q-8 -19 -12 -45zM459 -264q-35 78 1 156 q44 76 172 151q148 88 256 198q82 101 82 305l66 -113q-42 -228 -176 -322q-104 -79 -174 -131q-61 -40 -133 -92q-41 -26 -41 -78q0 -48 43 -78q41 -18 83 0q67 40 106 108q51 108 124 134q100 20 144 -54q36 -90 -14 -150q-48 -64 -118 -70l-6 62q66 20 84 73 q12 53 -25 71q-52 14 -84 -31l-17 -26q-44 -69 -98 -129q-54 -64 -142 -66q-88 6 -133 82z" />
<glyph unicode="#" d="M-355 1048l54 17l378 94h3l14 -2l-12 -25q-100 -43 -198 -90q-98 -46 -198 -108h-8l-7 6z" />
<glyph unicode="$" horiz-adv-x="2" d="M742 1206q17 92 122 140q60 24 170 1q60 -15 108 -17q87 6 146 81q42 75 40 146l46 -7q-26 -172 -114 -264q-114 -108 -284 -64q-96 32 -158 -28q-26 -44 2 -94q34 -36 106 -44q112 8 200 88l24 -40l-186 -344l-44 38l123 234q-156 -48 -242 8q-70 52 -59 166z" />
<glyph unicode="%" horiz-adv-x="2" d="M660 1210q4 84 33 144q65 132 197 184q134 48 186 -62q56 -123 33 -280q-27 -202 -155 -440l-38 64q49 112 44 156q-14 56 -66 42l-59 -20q-70 -21 -124 45q-55 82 -51 167zM734 1200q12 -60 52 -76q44 -4 104 24q45 12 81 -22q25 -28 33 -100q32 46 48 226 q4 150 -44 202q-46 47 -115 19q-99 -53 -147 -156q-20 -56 -12 -117z" />
<glyph unicode="&#x26;" horiz-adv-x="1" d="M-198 214q-21 -46 1 -88h37q-20 38 4 62q32 22 62 6l52 -30q48 -24 86 -2q30 20 42 51q18 43 4 87l-23 -14q9 -28 -11 -54q-30 -28 -84 4l-32 22q-24 16 -66 11q-46 -5 -72 -55z" />
<glyph unicode="'" horiz-adv-x="1221" d="M-15 541q16 179 103.5 269.5t209.5 90.5q100 2 179 -81.5t142 -1t189 82.5q118 0 207 -91.5t87 -220.5q-6 -137 -90 -237l-48 43q60 57 62 167q0 76 -65 136t-156 58q-86 -1 -168.5 -75.5t-164.5 2.5q-84 77 -178 73q-86 -2 -152 -64q-62 -54 -71 -173t64 -301 q40 -72 88 -110q0 48 47 78q54 22 107 1q53 -29 49 -91q-2 -58 -48 -86q-42 -22 -90 -10q-8 -21 8 -50l-63 -4q-20 44 -16 86q-93 38 -168 184q-80 146 -64 325zM288 72q12 -17 36 -18q24 0 34 18q10 20 0 38t-34 19q-24 -1 -36 -19q-10 -19 0 -38z" />
<glyph unicode="(" horiz-adv-x="2" d="M-144 94v11v10l6 22l5 16l6 15l6 11l9 17l25 32q-26 40 -54 68l15 42l28 -30l16 -18l20 -26l16 20l28 32l12 12l7 9l19 -41q-32 -32 -57 -70l10 -18l11 -18l5 -18l5 -24l2 -18l2 -14q-2 -14 -2 -27q-2 -11 -5 -24q-4 -11 -14 -29q-9 -17 -25 -26q-18 -9 -36 -9l-14 3 q-8 3 -12 7l-8 6l-8 7q-7 10 -12 26q-4 18 -6 44zM-110 82l2 -12q3 -7 7 -13l7 -9l2 -2l10 -3h8q6 0 9 3l9 8q10 12 14 32l2 16q2 38 -11 64l-7 14l-5 8q-18 -22 -29.5 -38t-15.5 -40l-2 -14v-14z" />
<glyph unicode=")" horiz-adv-x="2" d="M-372 10q10 29 21 47q-17 43 -13 92q9 72 86 93q88 18 97 58l9 33l30 1l-6 -46q-16 -96 -104 -110q-73 -13 -75 -58q1 -15 5 -27q12 17 29 21q20 5 47 -8q26 -23 18 -68q-11 -36 -50 -38q-32 2 -53 28q-7 -8 -13 -26zM-306 56q5 -18 23 -22q15 0 23 10q8 14 2 26 q-6 10 -25 9q-13 -3 -23 -23z" />
<glyph unicode="*" d="M-139 272q0 26 19 43q20 17 46 18q27 1 48 -19q26 -24 22 -69q-7 -66 -39 -106q-27 -37 -81 -57v22q70 40 82 112q-18 -6 -32 -6q-28 0 -46.5 18t-18.5 44z" />
<glyph unicode="+" horiz-adv-x="1" d="M-372 10q10 29 21 47q-17 43 -13 92q9 72 86 93q88 18 97 58l9 33l30 1l-6 -46q-16 -96 -104 -110q-73 -13 -75 -58q1 -15 5 -27q12 17 29 21q20 5 47 -8q26 -23 18 -68q-11 -36 -50 -38q-32 2 -53 28q-7 -8 -13 -26zM-306 56q5 -18 23 -22q15 0 23 10q8 14 2 26 q-6 10 -25 9q-13 -3 -23 -23zM-144 94v11v10l6 22l5 16l6 15l6 11l9 17l25 32q-26 40 -54 68l15 42l28 -30l16 -18l20 -26l16 20l28 32l12 12l7 9l19 -41q-32 -32 -57 -70l10 -18l11 -18l5 -18l5 -24l2 -18l2 -14q-2 -14 -2 -27q-2 -11 -5 -24q-4 -11 -14 -29 q-9 -17 -25 -26q-18 -9 -36 -9l-14 3q-8 3 -12 7l-8 6l-8 7q-7 10 -12 26q-4 18 -6 44zM-110 82l2 -12q3 -7 7 -13l7 -9l2 -2l10 -3h8q6 0 9 3l9 8q10 12 14 32l2 16q2 38 -11 64l-7 14l-5 8q-18 -22 -29.5 -38t-15.5 -40l-2 -14v-14z" />
<glyph unicode="," horiz-adv-x="1499" d="M28 522q18 -30 50 -68l49 51q-43 54 -47 124q12 71 72 105q88 50 188 4q78 -38 88 -128q2 -88 -44 -160q-88 -142 -8 -292q75 -136 291 -164l5 67q-50 43 -36 107q10 48 92 91l125 73q127 68 91 205q-20 85 22 155q34 66 147 72q86 3 129 -53q46 -71 36 -129 q-12 -46 -39 -78l35 -52q75 80 76 197q0 90 -64 173q-78 78 -203 82q-104 -4 -171 -87q-84 -99 -61 -205q55 -166 -53 -224l-164 -89q-94 -54 -71 -205q-171 99 -139 238q48 112 80 198q48 147 -32 271q-60 102 -203 103q-161 -6 -239 -130q-64 -106 -2 -252zM568 14h4h-4z M694 -283q30 -49 86 -53q68 -8 100 27q64 44 94 128q26 90 26 148q-8 80 -24 145q18 24 78 62l-28 58q-62 -38 -72 -50q-32 130 -112 228l-72 -40q64 -74 118 -237q-72 -62 -112 -106t-80 -145q-32 -90 -2 -165zM764 -187q8 64 39 125q38 59 102 122l17 -72q-2 -78 -26 -156 q-33 -100 -95 -104q-47 16 -37 85z" />
<glyph unicode="-" horiz-adv-x="699" d="M32 445q-62 149 0 303q88 152 242 154q172 0 242 -154q70 -151 -2 -303q-27 -50 -77 -95l-29 52q66 48 76 151q-4 107 -106 178q-106 59 -220 1q-78 -48 -86 -152q-2 -74 24 -115q26 71 113 75q69 -4 101 -61q27 -53 3 -115q-32 -62 -113 -62q-64 2 -100 53 q-10 -19 -9 -47l-57 -2q4 54 20 100q-12 18 -22 39zM125 413q21 -28 51 -46q28 -11 58 1q30 16 30 48t-30 50q-30 12 -58 -1q-30 -16 -51 -52z" />
<glyph unicode="." horiz-adv-x="1525" d="M-28 426q6 48 30 94q-60 136 10 253q94 128 250 131q152 0 211 -100q80 -128 34 -274q-37 -88 -83 -200q-32 -138 138 -232q-22 144 70 201l166 88q106 59 54 225q-26 105 58 203q70 87 172 91q126 -1 204 -87q62 -80 66 -169q-4 -118 -78 -198l-35 50q27 32 39 81 q8 55 -38 129q-40 52 -134 48q-106 -4 -138 -70q-44 -68 -26 -151q40 -137 -90 -205l-126 -74q-80 -43 -92 -93q-12 -61 38 -105l-7 -68q-214 28 -290 162q-76 150 -4 266q64 100 58 187q-10 91 -91 130q-96 43 -194 1q-98 -50 -83 -168q35 36 77 35q54 1 80 -47 q22 -50 0 -100q-32 -50 -93 -52q-58 2 -88 44q-14 -16 -17 -45zM75 504q15 -20 35 -32q20 -10 39 0q20 12 20 36t-20 36q-19 10 -39 0q-20 -12 -35 -40zM532 70h4h-4z" />
<glyph unicode="/" horiz-adv-x="1622" d="M-2 225q-2 -97 62 -161t148 -65q240 5 332 133q90 118 60 247q-36 102 -43 185q2 79 60.5 136.5t146.5 55.5q95 4 157.5 -56t74.5 -136h56q10 74 73 133t147 61q93 -4 158.5 -62t63.5 -132q2 -122 -66 -212q-48 94 -126 98q-66 -2 -106 -61q-23 -68 6 -124 q30 -59 106 -63q66 6 92 44q8 -20 7 -60l51 -2q4 62 -8 106q116 134 122 294q2 132 -85 225t-211 95q-118 -2 -211 -92q-29 -28 -43 -62q-14 32 -48 64q-86 90 -208 91q-118 -2 -206 -95t-85 -197q-2 -131 38 -208q45 -126 -25 -215q-38 -48 -94 -82q24 30 22 118 q0 92 -60 158t-146 64q-88 3 -150.5 -62t-61.5 -161zM83 221q2 80 62 119q60 32 121 2q62 -42 62 -121q-2 -81 -28 -131q-82 -14 -145 19q-60 32 -72 112zM1244 321q2 37 32 53q32 14 62 0q30 -18 50 -66q-24 -31 -50 -40q-30 -14 -62 0q-32 18 -32 53z" />
<glyph unicode="0" horiz-adv-x="843" d="M76 420l2 56q2 116 40 210q112 214 318 214q222 -2 316 -209q47 -104 45 -212v-49q-1 -116 -45 -226q-104 -204 -316 -205q-214 1 -316 205q-44 113 -44 216zM150 410q0 -201 145 -310q142 -78 285 2q142 102 144 308q0 204 -144 312q-143 78 -285 -4 q-141 -102 -145 -308z" />
<glyph unicode="1" horiz-adv-x="913" d="M64 272q-4 68 24 128q-70 150 13 324q91 171 328 176q227 0 325 -171q102 -172 8 -354q-28 -61 -168 -133q-132 -66 -136 -194v-394l-76 -2v394q0 180 198 270q148 66 150 199q0 135 -144 213q-156 70 -304 0q-146 -76 -150 -212q-4 -20 4 -44q34 50 94 49q70 -3 101 -59 q29 -58 -1 -121q-32 -62 -100 -60q-52 4 -92 44q-18 -19 -14 -57zM158 392q18 -34 44 -41q28 -11 56 1q28 16 29 49q-1 31 -29 49q-28 12 -56 0q-28 -16 -44 -58z" />
<glyph unicode="2" horiz-adv-x="1236" d="M-8 584q20 256 154 386q84 88 192 143q98 42 196 33q148 -46 209 -66t107 -10q45 8 76 52q96 98 116 198l56 2q-18 -74 -74 -172q-76 -130 -152 -190q-106 -62 -260 2q-95 49 -165 67q-78 2 -124 -16q-74 -46 -115.5 -92.5t-85.5 -117.5q-66 -108 -69 -301 q9 -154 83 -275q76 -113 254 -177q152 -44 304 -2q166 66 244 163q84 153 63 331q-10 108 -100 176q-122 74 -202 -6q-66 -74 -72 -133l-47 -1q-6 60 -80 132q-88 68 -187 28q-73 -45 -108 -137q-25 -71 -11 -146q9 -69 52 -127q22 96 100 97q104 0 106 -120 q-6 -82 -80 -102q-42 -12 -94 19q-6 -20 -3 -36l-51 3q2 38 7 73q-65 72 -93 175q-28 81 0 198q40 136 156 217q102 68 216 25q68 -26 100 -93q28 32 64 62q66 69 182 43q153 -59 214 -265q44 -178 -36 -371q-84 -170 -307 -256q-176 -58 -354 -7q-199 74 -289 211 q-104 178 -92 383zM292 280q20 -18 46 -24q13 -6 34 6q22 16 22 46t-22 45q-21 11 -43 -1q-33 -12 -37 -72z" />
<glyph unicode="3" horiz-adv-x="1195" d="M48 220q-98 268 4 521q81 146 220 157q132 0 184 -82q71 -72 139 14q94 84 214 70q140 -4 207 -150q59 -158 19 -315l-65 111q-13 112 -109 179q-102 62 -205 -15q-15 -12 -27 -18q-91 -92 -191 -6q-22 25 -49 45q-88 45 -194 -13q-83 -64 -112 -174t19 -274 q38 -100 108 -147q8 59 52 83q52 26 101 0q52 -32 50 -98q-2 -56 -48 -88q-52 -18 -104 -10q-7 -32 7 -65l-48 1q-18 48 -12 94q-94 52 -160 180zM48 220q-98 268 4 521q81 146 220 157q132 0 184 -82q71 -72 139 14q94 84 214 70q140 -4 207 -150q59 -158 19 -315l-65 111 q-13 112 -109 179q-102 62 -205 -15q-15 -12 -27 -18q-91 -92 -191 -6q-22 25 -49 45q-88 45 -194 -13q-83 -64 -112 -174t19 -274q38 -100 108 -147q8 59 52 83q52 26 101 0q52 -32 50 -98q-2 -56 -48 -88q-52 -18 -104 -10q-7 -32 7 -65l-48 1q-18 48 -12 94 q-94 52 -160 180zM266 84q24 -12 47 -13q22 0 34 19q10 20 0 39q-10 20 -34 21q-23 -2 -35 -21q-8 -19 -12 -45zM266 84q24 -12 47 -13q22 0 34 19q10 20 0 39q-10 20 -34 21q-23 -2 -35 -21q-8 -19 -12 -45zM459 -264q-35 78 1 156q44 76 172 151q148 88 256 198 q82 101 82 305l66 -113q-42 -228 -176 -322q-104 -79 -174 -131q-61 -40 -133 -92q-41 -26 -41 -78q0 -48 43 -78q41 -18 83 0q67 40 106 108q51 108 124 134q100 20 144 -54q36 -90 -14 -150q-48 -64 -118 -70l-6 62q66 20 84 73q12 53 -25 71q-52 14 -84 -31l-17 -26 q-44 -69 -98 -129q-54 -64 -142 -66q-88 6 -133 82z" />
<glyph unicode="4" horiz-adv-x="1096" d="M52 128q30 72 64 130q-24 158 7 312q33 160 179 264q180 107 312 59q134 -42 238 -89q109 -34 167 6q49 52 111 173l61 45q-37 -127 -84 -239q-54 -125 -167 -137q-96 -6 -206 40q-79 30 -147 51q-156 37 -260 -13q-75 -46 -129 -172q-34 -124 -18 -236q75 96 182 102 q142 -2 190 -110q59 -106 0 -211q-56 -103 -170 -105q-118 -2 -167.5 54t-73.5 105q-18 -27 -28 -69zM202 242q9 -94 62 -146q83 -64 176 -18q70 42 72 127q0 84 -72 129q-72 32 -142 -2q-62 -44 -96 -90z" />
<glyph unicode="5" horiz-adv-x="802" d="M34 432q-77 156 0 308q104 160 286 160q202 -2 289 -159q83 -154 -1 -311q-46 -65 -90 -99q36 -20 64 -68q46 -92 -7 -173q-55 -84 -121 -86q-6 -36 -19 -56h-55q10 26 14 49l-27 -5q-80 14 -105 60q-22 46 1 95q33 51 87 51q52 -2 84 -46q26 -44 24 -82q68 16 78 106 q-16 104 -106 114l-10 64q142 64 145 181q0 117 -115 193q-142 64 -274 -4q-96 -56 -98 -168q12 -90 56 -139l-8 -82q-49 27 -92 97zM314 100q0 -22 19 -32q18 -8 39 -8q8 0 24 -2q3 50 -26 76q-19 8 -37 -1q-19 -11 -19 -33z" />
<glyph unicode="6" horiz-adv-x="1123" d="M-2 225q-2 -97 61.5 -161t178.5 -65q210 5 302 133q90 118 60 247q-36 102 -43 185q2 79 60.5 136.5t146.5 55.5q95 4 157.5 -56t68.5 -136q-2 -104 -58 -168l39 -40q91 98 97 226q8 130 -94 232q-86 90 -208 91q-118 -2 -206 -95t-85 -197q-2 -131 38 -208 q45 -126 -25 -215q-38 -48 -94 -82q24 30 22 118q0 92 -60 158t-146 64q-88 3 -150.5 -62t-61.5 -161zM83 221q2 80 62 119q60 32 121 2q62 -42 62 -121q-2 -81 -28 -131q-70 -28 -145 7q-60 44 -72 124z" />
<glyph unicode="7" horiz-adv-x="1123" d="M-2 225q-2 -97 61.5 -161t178.5 -65q210 5 302 133q90 118 60 247q-36 102 -43 185q2 79 60.5 136.5t146.5 55.5q95 4 157.5 -56t68.5 -136q3 -78 -6 -148l65 -24q16 58 23 180q2 138 -98 242q-86 90 -208 91q-118 -2 -206 -95t-85 -197q-2 -131 38 -208 q45 -126 -25 -215q-38 -48 -94 -82q24 30 22 118q0 92 -60 158t-146 64q-88 3 -150.5 -62t-61.5 -161zM83 221q2 80 62 119q60 32 121 2q62 -42 62 -121q-2 -81 -28 -131q-70 -28 -145 7q-60 44 -72 124zM450 -196q12 -88 90 -132q62 -24 129 -8q121 52 174 205l17 23 q32 40 82 28q36 -15 24 -63q-18 -46 -82 -63l5 -55q69 6 117 61q48 54 12 132q-44 66 -140 48q-72 -23 -119 -119.5t-83 -122.5t-80 -16q-50 13 -66 55q-10 80 32 135q62 66 118 82q100 24 189 97q141 83 184 304l-63 39q-38 -160 -108 -242q-76 -94 -234 -141 q-82 -37 -128 -79q-74 -62 -70 -168z" />
<glyph unicode="8" horiz-adv-x="1356" d="M-20 574q-20 110 38 216q92 106 234 114q166 -6 258 -148q84 -140 84 -266q62 16 84.5 64.5t19 126t48.5 137.5q54 86 214 90q108 -8 174 -94q56 -61 48 -183q-18 -123 -70 -243l-44 83q21 70 30 138q3 58 -23 108q-39 49 -125 55q-78 -2 -136 -42q-44 -26 -54 -160 q-8 -122 -164 -152q-16 -146 -70 -242q-57 -87 -119 -137q-86 -55 -172 -13q-57 32 -53 126q16 134 100 206q80 88 234 125q-10 73 -34 135q-46 104 -142 125q-89 23 -177 -7q-79 -32 -93 -112q-10 -70 44 -114l-50 -60q-58 52 -84 124zM250 163q6 -61 36 -79q30 -14 60 0 q76 44 120 134q52 98 54 191q-130 -27 -203 -109q-55 -68 -67 -137zM439 -178q-5 114 75 182q49 46 138 87q162 77 272 157q81 92 145 230l83 26q-54 -236 -248 -362q-94 -66 -216 -113q-60 -18 -128 -89q-46 -60 -36 -148q19 -46 73 -60q46 -12 85.5 17t90.5 134t129 130 q104 21 150 -51q38 -86 -12 -144q-52 -60 -126 -68l-6 61q70 19 90 69q12 52 -28 68q-56 14 -88 -30l-18 -25q-56 -169 -188 -225q-74 -18 -141 8q-82 48 -96 146z" />
<glyph unicode="9" horiz-adv-x="1403" d="M21 543q-45 100 7 223q86 136 223 134q164 2 221 -129q72 -131 -10 -255q-84 -113 -78 -197q8 -179 138 -229q132 -54 254 6q112 64 114 214q-26 101 -103 200q-71 130 -17 258q84 134 222 132q164 -2 225 -127q65 -125 38 -239q-55 -42 -17 -76l-54 34q-10 68 -10 128 q-5 74 -76 120q-98 52 -204 -2q-76 -60 -57 -160q20 -44 70 -116q101 -150 11 -312q-66 -150 -274 -160q-212 14 -292 162q-86 186 18 338q38 56 50 106q10 84 -74 142q-100 52 -196 -5q-74 -45 -76 -119q2 -78 73 -114l-43 -52q-60 44 -83 95zM765 -190q-4 106 66 170 q42 44 120 82q99 80 179 207q60 127 50 303l76 -30q-6 -197 -84 -352q-91 -132 -190 -186q-54 -32 -112 -84q-40 -57 -30 -139q17 -43 63 -56q40 -11 74.5 16t78.5 126t112 121q90 18 132 -48q34 -80 -12 -135q-46 -57 -110 -63l-4 57q62 16 78 64q10 49 -24 65 q-48 12 -77 -29l-16 -23q-49 -156 -163 -210q-64 -18 -123 7q-72 47 -84 137z" />
<glyph unicode=":" horiz-adv-x="1412" d="M34 432q-77 156 0 308q104 160 286 160q202 -2 289 -159q83 -154 -1 -311q-46 -65 -90 -99q36 -20 64 -68q46 -92 -7 -173q-55 -84 -121 -86q-6 -36 -19 -56h-55q10 26 14 49l-27 -5q-80 14 -105 60q-22 46 1 95q33 51 87 51q52 -2 84 -46q26 -44 24 -82q68 16 78 106 q-16 104 -106 114l-10 64q142 64 145 181q0 117 -115 193q-142 64 -274 -4q-96 -56 -98 -168q12 -90 56 -139q4 22 18 48q32 47 99 51q75 -4 105 -60t0 -111q-36 -58 -105 -58q-33 4 -67 18q-2 -26 9 -62l-55 -5q-14 54 -12 97q-49 27 -92 97zM193 378q15 -10 41 -18 q22 -2 45 8q23 12 23 38q0 24 -23 36q-23 10 -47 0q-24 -12 -39 -64zM314 100q0 -22 19 -32q18 -8 39 -8q8 0 24 -2q3 50 -26 76q-19 8 -37 -1q-19 -11 -19 -33zM643 649q63 -16 105 -45q56 -62 62 -162q66 70 37 174q-35 96 21 198q46 88 194 88q116 1 173 -95 q44 -110 23 -193q-21 -68 -76 -120l-39 44q47 42 53 110q-1 70 -67 111q-87 31 -161 -7q-70 -38 -48 -140q8 -100 -24 -174q-34 -64 -123 -96l-20 38q9 36 -3 88q-12 68 -98 90q-2 26 -9 91z" />
<glyph unicode=";" horiz-adv-x="1123" d="M-2 225q-2 -97 61.5 -161t178.5 -65q210 5 302 133q90 118 60 247q-36 102 -43 185q2 79 60.5 136.5t146.5 55.5q95 4 157.5 -56t68.5 -136q-2 -104 -58 -168l39 -40q91 98 97 226q8 130 -94 232q-86 90 -208 91q-118 -2 -206 -95t-85 -197q-2 -131 38 -208 q45 -126 -25 -215q-38 -48 -94 -82q24 30 22 118q0 92 -60 158t-146 64q-88 3 -150.5 -62t-61.5 -161zM83 221q2 80 62 119q60 32 121 2q62 -42 62 -121q-2 -81 -28 -131q-70 -28 -145 7q-60 44 -72 124z" />
<glyph unicode="&#x3c;" horiz-adv-x="801" d="M87 438q28 -50 67 -79l41 49q-54 53 -67 147q2 105 104 165q126 70 260 12q107 -53 118 -167q2 -120 -134 -202l-117 -65q-77 -44 -103 -108q-22 -60 16 -126q50 -62 143 -64q101 2 145 79q26 43 24 109h-68q8 -82 -40 -117q-48 -25 -104 -9q-48 22 -50 72q4 57 45 81 l139 81q112 50 168 168q64 125 -20 278q-82 148 -284 156q-180 -8 -280 -158q-80 -148 -3 -302z" />
<glyph unicode="=" horiz-adv-x="697" d="M32 445q-62 149 0 303q88 152 242 154q172 0 242 -154q70 -151 -2 -303q-27 -50 -77 -95l-29 52q66 48 76 151q-4 107 -106 178q-106 59 -220 1q-78 -48 -86 -152q-2 -74 24 -115q26 71 113 75q69 -4 101 -61q27 -53 3 -115q-32 -62 -113 -62q-64 2 -100 53 q-10 -19 -9 -47l-57 -2q4 54 20 100q-12 18 -22 39zM42 127q-36 -65 2 -123h62q-34 54 8 88q55 32 105 6l87 -42q82 -36 157 8q40 18 59 62q30 62 8 124l-39 -20q15 -42 -19 -78q-52 -38 -142 8l-54 30q-42 24 -112 22q-76 -15 -122 -85zM125 413q21 -28 51 -46q28 -11 58 1 q30 16 30 48t-30 50q-30 12 -58 -1q-30 -16 -51 -52z" />
<glyph unicode="&#x3e;" horiz-adv-x="1275" d="M24 758q76 130 224 140q155 -9 218 -137q64 -133 0 -265q-19 -36 -53 -66q-90 -84 -81 -162q4 -97 48 -139.5t150 -56.5q-61 104 27 154l61 24q90 18 124 68q-100 -5 -142 63q-28 60 2 120q36 61 104 61q76 2 107 -59q24 -47 5 -97q82 72 21 188q-64 102 -121 164.5 t-105 155.5q-63 148 -1 288q76 139 234 151q174 -11 242 -139q64 -155 12 -247q-42 -73 -98 -101l-34 66q79 28 85 144q-5 113 -105 155q-102 43 -192 -11q-98 -53 -99 -148.5t33 -139.5q72 -130 186 -262q62 -82 50 -199q-34 -113 -116 -129q-20 -113 -144 -140 q-94 -24 -90 -66q20 -72 62 -86l-34 -51q-84 2 -173 19.5t-153 113.5q-59 140 8 266q32 42 76 80q40 46 54 112q0 90 -70 144q-98 50 -191 0q-75 -58 -75 -143q0 -83 84 -129l-40 -58q-61 34 -97 97q-57 127 -3 257zM648 434q0 -36 32 -56q30 -14 78 -1q10 29 4 55 q-4 36 -26 52q-26 12 -56 4q-30 -18 -32 -54z" />
<glyph unicode="?" horiz-adv-x="1195" d="M48 220q-98 268 4 521q81 146 220 157q132 0 184 -82q71 -72 139 14q94 84 214 70q140 -4 207 -150q60 -158 32 -315l-78 111q-13 112 -109 179q-102 62 -205 -15q-15 -12 -27 -18q-91 -92 -191 -6q-22 25 -49 45q-88 45 -194 -13q-83 -64 -112 -174t19 -274 q38 -100 108 -147q8 59 52 83q52 26 101 0q52 -32 50 -98q-2 -56 -48 -88q-52 -18 -104 -10q-7 -32 7 -65l-48 1q-18 48 -12 94q-94 52 -160 180zM266 84q24 -12 47 -13q22 0 34 19q10 20 0 39q-10 20 -34 21q-23 -2 -35 -21q-8 -19 -12 -45zM434 -182q-5 114 76 182 q48 47 142 97q128 65 214 147q138 120 87 361l91 -169q-18 -136 -160 -274q-94 -80 -190 -122q-100 -50 -148 -104q-46 -48 -36 -118q16 -84 82 -90q47 -12 104.5 24t40.5 144l67 2q28 -176 -133 -234q-74 -18 -141 8q-82 48 -96 146z" />
<glyph unicode="@" d="M-536 1084q42 26 122 80q28 -46 28 -47q12 -18 41 -39q31 -24 69 -24q170 0 276 202q4 -24 -30 -94q-34 -64 -58 -92q-112 -122 -237 -122q-69 0 -133 40q-42 27 -78 96z" />
<glyph unicode="A" horiz-adv-x="1252" d="M1 60l51 -62q98 98 104 214v20q0 120 -32 180q-36 66 -38 145v11q0 68 60 124q64 60 150 60h9q88 0 149 -58q64 -60 76 -137h56q8 74 72 133.5t148 61.5q92 -1 156 -60q66 -60 68 -226q-12 -210 -108 -356q-90 -132 -226 -244l75 2q247 172 318 468q27 96 27 193 q0 28 -2 56q-8 128 -95 220t-209 92q-120 -1 -208 -93q-34 -26 -46 -64q-16 36 -49 66q-87 90 -207 91q-121 0 -207.5 -92t-86.5 -197q0 -132 39 -206q36 -69 36 -167v-15q-7 -92 -80 -160z" />
<glyph unicode="B" horiz-adv-x="601" d="M254 766q0 37 26.5 61t63.5 24t63.5 -24t26.5 -61t-26 -61.5t-64 -24.5t-64 24.5t-26 61.5z" />
<glyph unicode="C" horiz-adv-x="1279" d="M-15 541q16 179 103.5 269.5t209.5 90.5q120 0 204 -90l52 -65l45 62q87 92 209 93q118 0 207 -91.5t103 -225.5q6 -44 6 -89q0 -96 -28 -200q-82 -269 -322 -435l-82 -5q260 209 318 428q32 133 32 241v13q-16 100 -81 160q-63 59 -150 59h-6q-86 0 -145 -48 q-72 -56 -78 -146h-54q-12 76 -76 137q-60 57 -147 57h-11q-86 -2 -152 -64q-62 -54 -71 -173q-1 -13 -1 -27q0 -112 65 -274q40 -72 88 -110q0 48 47 78q28 11 55 11q26 0 52 -10q49 -27 49 -82v-9q-2 -58 -48 -86q-27 -14 -57 -14q-16 0 -33 4q-8 -21 8 -50l-63 -4 q-17 37 -17 72q0 7 1 14q-93 38 -168 184q-67 122 -67 266q0 29 3 59zM288 70q12 -16 36 -18q24 0 34 18q5 10 5 19t-5 18q-10 18 -34 19q-24 -2 -36 -19q-5 -10 -5 -19t5 -18z" />
<glyph unicode="D" horiz-adv-x="1" d="M666 1254q-1 13 -1 26q0 101 57 168q62 83 199 93q140 -12 193 -121q28 -69 27 -132q0 -23 -3 -46q-18 -68 -58 -97l-42 49q34 25 34 97v15q-6 87 -81 126q-40 14 -78 14q-58 0 -111 -33q-62 -48 -62 -123v-9q-1 -84 49 -139q55 -46 101 -84q60 -38 92 -108 q21 -53 21 -128q0 -37 -5 -79l-62 60q1 11 1 23q0 47 -20 95q-47 72 -137 127q-100 76 -114 206zM931 1210q31 18 91 56l20 -33q8 -11 32 -28q22 -17 50 -17q125 0 205 144q2 -18 -23 -66q-24 -46 -43 -66q-81 -88 -175 -88q-52 0 -100 28q-32 20 -57 70z" />
<glyph unicode="E" horiz-adv-x="1219" d="M0 592q-8 30 -8 60q0 71 46 144q73 106 219 116q197 -12 245 -127q32 -79 32 -144q0 -27 -6 -51q-20 -80 -61 -110q6 2 14 2q28 0 70 -23q54 -29 74 -83q11 -50 11 -100q0 -22 -2 -44q-20 -87 -76 -153q108 25 199 95q94 90 131 176q-70 110 -135 284q-10 37 -10 73 q0 67 34 133q41 64 117 64q84 0 116 -75q25 -74 25 -149q0 -40 -7 -81q-12 -119 -56 -254q43 -108 43 -201q0 -40 -8 -78q-32 -118 -129 -194q-88 -54 -210 -94v78q90 30 165 76q84 52 103 132q8 38 8 81q0 61 -16 133q-60 -117 -172 -198q-123 -80 -275 -80q-15 0 -31 1 l-22 71q74 30 106 106q24 53 24 104q0 35 -11 68q-36 52 -86 61q-15 3 -30 3q-35 0 -73 -15l-12 64q98 64 102 149q-2 76 -94 130q-48 13 -95.5 13t-94.5 -13q-72 -40 -80 -109q-1 -8 -1 -16q0 -65 73 -111l-29 -56q-95 44 -127 142zM824 727q0 -19 3 -39l13 -42l2 -12 l10 -24q12 -46 32 -88q20 -44 37 -88l4 4q17 80 27 163q2 22 2 47q4 23 4 49q0 34 -7 72q-24 57 -69 57l-8 -6l-20 -9q-30 -33 -30 -84z" />
<glyph unicode="F" horiz-adv-x="2" d="M742 1188q17 88 122 134q31 13 76 13q41 0 94 -11q60 -14 108 -16q87 6 146 77q40 69 40 134v6l46 -7q-26 -166 -114 -254q-81 -74 -189 -74q-45 0 -95 13q-33 11 -63 11q-55 0 -95 -38q-13 -20 -12 -42q0 -23 14 -48q34 -34 106 -42q112 8 200 85l24 -39l-186 -330 l-44 37l123 225q-73 -23 -131 -23q-65 0 -111 29q-60 43 -60 131q0 14 1 29zM939 1433l107 31l120 40l122 40q14 5 25.5 5t20.5 -5l-76 -49q-80 -51 -198 -103l-84 -42z" />
<glyph unicode="G" horiz-adv-x="1344" d="M-20 574q-5 28 -5 56q0 81 43 160q92 106 234 114q166 -6 258 -148q84 -140 84 -266q62 16 84 64q20 42 20 106v20q-1 5 -1 10q0 72 49 128q54 86 214 90q108 -8 174 -94q56 -61 56 -191q-6 -156 -60 -311q-94 -276 -358 -454l-74 2q148 110 240 247q98 147 141 315 q30 89 30 160q0 54 -17 97q-56 87 -142 93q-78 -2 -136 -42q-44 -26 -54 -160q-8 -122 -164 -152q-16 -146 -70 -242q-57 -87 -119 -137q-49 -31 -98 -31l-74 18q-53 30 -53 114v12q16 134 100 206q80 88 234 125q-10 73 -34 135q-46 104 -142 125q-39 10 -77 10 q-50 0 -100 -17q-79 -32 -93 -112q-2 -11 -2 -21q0 -56 46 -93l-50 -60q-58 52 -84 124zM250 163q6 -61 36 -79q15 -7 30 -7l30 7q76 44 120 134q52 98 54 191q-130 -27 -203 -109q-55 -68 -67 -137z" />
<glyph unicode="H" horiz-adv-x="646" d="M98 750q0 96 60 96q32 0 48 -24q17 -25 17 -56q0 -6 -1 -12l-3 -40l-51 -438h-16l-10 122q-8 55 -32 239zM100 155q0 26 17 43.5t41 17.5t42 -17.5t18 -43.5t-18 -43q-18 -18 -42 -18t-41 17.5t-17 43.5z" />
<glyph unicode="I" horiz-adv-x="1" d="M-552 1083q42 26 121 80q29 -46 29 -47q12 -18 40 -39q32 -25 70 -25q170 0 276 203v-5q0 -25 -30 -88q-32 -64 -58 -92q-112 -124 -238 -124q-70 0 -134 41q-42 27 -76 96zM-384 1173q0 6 2 85l-2 -1l381 124l-5 -17l-374 -231q-2 33 -2 40z" />
<glyph unicode="J" horiz-adv-x="1" d="M-552 1083q42 26 121 80q29 -46 29 -47q12 -18 40 -39q32 -25 70 -25q170 0 276 203v-5q0 -25 -30 -88q-32 -64 -58 -92q-112 -124 -238 -124q-70 0 -134 41q-42 27 -76 96zM-355 1235q0 38 26.5 64.5t63.5 26.5q38 0 64.5 -26t26.5 -65q0 -38 -27 -65t-64 -27 q-36 0 -63 27t-27 65z" />
<glyph unicode="K" horiz-adv-x="1128" d="M-2 225v-6q0 -93 62 -155q64 -64 178 -65q210 5 302 133q68 88 68 183q0 32 -8 64q-36 102 -43 185q3 78 61 136q57 56 140 56h6h12q88 0 146 -56q62 -60 68 -136q3 -25 3 -52q0 -87 -30 -192q-39 -108 -109 -218q-102 -138 -244 -238l82 1q236 155 338 415 q48 152 48 274v18q-4 140 -100 252q-92 80 -212 81q-118 -2 -206 -95q-85 -90 -85 -190v-7v-12q0 -122 38 -196q18 -49 18 -93q0 -68 -43 -122q-38 -48 -94 -82q22 28 22 105v13q0 92 -60 158q-58 64 -141 64h-5q-4 0 -8 1q-82 0 -142 -63q-62 -65 -62 -161zM83 221 q2 80 62 119q31 17 62 17q29 0 59 -15q62 -42 62 -121q-2 -81 -28 -131q-31 -12 -63 -12q-40 0 -82 19q-60 44 -72 124z" />
<glyph unicode="L" horiz-adv-x="1296" d="M-15 541q16 179 103.5 269.5t209.5 90.5h5q97 1 174 -81q40 -42 75 -42t67 40q63 82 189 83q118 0 207 -91.5t103 -243.5q5 -37 5 -78q0 -84 -19 -188q-62 -256 -327 -436l-82 -2q151 114 243 245q85 149 96 337q-8 192 -73 252q-63 60 -150 60h-6q-87 -2 -169 -76 q-41 -37 -81 -36q-42 0 -83 39q-80 73 -169 73h-9q-86 -2 -152 -64q-62 -54 -71 -173q-1 -13 -1 -27q0 -112 65 -274q40 -72 88 -110q0 48 47 78q28 11 55 11q26 0 52 -10q49 -27 49 -82v-9q-2 -58 -48 -86q-27 -14 -57 -14q-16 0 -33 4q-8 -21 8 -50l-63 -4q-17 37 -17 72 q0 7 1 14q-93 38 -168 184q-67 122 -67 266q0 29 3 59zM288 72q12 -17 36 -18q24 0 34 18q5 10 5 19.5t-5 18.5q-10 18 -34 19q-24 -1 -36 -19q-5 -10 -5 -19t5 -19z" />
<glyph unicode="M" horiz-adv-x="1518" d="M-28 426q6 48 30 94q-28 63 -28 121q0 69 38 132q94 128 250 131q152 0 211 -100q51 -81 51 -170q0 -51 -17 -104q-37 -88 -83 -200q-5 -22 -5 -43q0 -110 143 -189q-4 28 -4 52q0 103 74 149l166 88q71 40 71 127q0 43 -17 98q-6 25 -6 49q0 79 64 154q70 87 172 91 q126 -1 204 -87q62 -80 66 -169q1 -19 1 -37q0 -184 -55 -341q-75 -232 -326 -400l-73 2q142 104 232 234q86 136 127 274q15 81 15 153q0 76 -17 141q-42 84 -141 84h-9q-106 -4 -138 -70q-31 -48 -31 -104q0 -23 5 -47q9 -32 9 -61q0 -92 -99 -144l-126 -74 q-80 -43 -92 -93q-2 -12 -2 -23q0 -47 40 -82l-7 -68q-214 28 -290 162q-39 77 -39 145q0 64 35 121q59 91 59 172q0 8 -1 15q-10 91 -91 130q-49 22 -98 22q-48 0 -96 -21q-85 -43 -85 -138q0 -14 2 -30q34 35 75 35h2h2q52 0 78 -47q11 -25 11 -50t-11 -50 q-32 -50 -93 -52q-58 2 -88 44q-14 -16 -17 -45zM75 504q15 -20 35 -32q10 -5 20 -5t19 5q20 12 20 36t-20 36q-10 5 -19.5 5t-19.5 -5q-20 -12 -35 -40z" />
<glyph unicode="N" horiz-adv-x="1268" d="M-62 134l68 -38q4 48 30 84q19 -66 76.5 -122.5t181.5 -56.5h4q119 0 180 111q32 56 32 113t-32 113q-52 113 -208 113q-116 -2 -198 -109q-7 50 -7 111q0 40 3 85q14 108 75 162t145 54q9 1 17 1q85 1 141 -55q62 -60 77 -136l53 -2q11 76 74.5 134t149.5 60 q90 -2 154 -60q64 -60 74 -166q2 -24 2 -49q0 -175 -89 -343q-100 -166 -240 -273l74 -1q248 168 314 454q26 97 27 187q0 33 -4 65q-13 147 -100.5 238.5t-207.5 91.5h-5q-117 0 -205 -88q-34 -28 -44 -66q-18 36 -49 66q-87 88 -211 88q-120 0 -205 -93t-103 -278 q-4 -44 -4 -81q0 -30 2 -56q6 -58 28 -114q-46 -76 -70 -144zM99 246q26 64 103 109q39 18 78 18q38 0 77 -17q79 -48 79 -136q-2 -90 -79 -134q-37 -14 -72 -14q-49 0 -95 28q-70 59 -91 146z" />
<glyph unicode="O" horiz-adv-x="1600" d="M-2 225v-6q0 -93 62 -155q64 -64 148 -65q240 5 332 133q68 88 68 183q0 32 -8 64q-36 102 -43 185q3 78 61 136q57 56 140 56h6h12q88 0 146 -56q62 -60 74 -136h56q10 74 73 133t147 61q92 -4 158 -67q59 -57 60 -151q0 -10 -1 -20q-4 -82 -20 -168q-17 -104 -95 -241 q-98 -130 -234 -243h68q250 174 336 424q42 144 43 263q0 10 -1 21q-12 141 -99 233.5t-211 94.5q-118 -2 -211 -92q-29 -28 -43 -62q-14 32 -48 64q-86 90 -208 91q-118 -2 -206 -95q-85 -90 -85 -190v-7v-12q0 -122 38 -196q18 -49 18 -93q0 -68 -43 -122q-38 -48 -94 -82 q22 28 22 105v13q0 92 -60 158q-58 64 -141 64h-5q-4 0 -8 1q-82 0 -142 -63q-62 -65 -62 -161zM83 221q2 80 62 119q31 17 62 17q29 0 59 -15q62 -42 62 -121q-2 -81 -28 -131q-24 -4 -47 -4q-54 0 -98 23q-60 32 -72 112z" />
<glyph unicode="P" horiz-adv-x="1872" d="M-11 754q59 135 217 144q134 -8 212 -154q40 -98 44 -240q2 -31 3 -63q0 -87 -17 -177q-14 -90 -56 -188q62 10 106 34t107 99q37 61 37 127q0 35 -10 70q-28 68 -29 200v9q0 102 82 189q85 91 211 92h4q169 0 248 -151q88 150 258 151h5q117 0 197 -88q92 -98 99 -261 q-12 -177 -48 -288q-74 -199 -318 -397l-67 -1q157 124 258 297q94 172 94 370q-4 116 -58 164q-76 58 -168 60q-82 -2 -145 -62t-75 -134l-57 -2q-11 82 -74 142q-59 56 -147 56h-12q-88 0 -146 -59t-62 -133q12 -88 25 -169q7 -29 6 -59q0 -83 -51 -170 q-90 -150 -346 -168l-34 50q76 96 98 297q1 23 1 44q0 128 -21 210q-27 86 -96 141q-40 24 -77 24q-35 0 -67 -21q-58 -47 -59 -113q0 -13 3 -27q18 -73 60 -113l-42 -47q-58 43 -82 103q-25 53 -25 115q0 46 14 97z" />
<glyph unicode="Q" horiz-adv-x="871" d="M78 699q0 75 58 119q48 36 114 36q104 0 152 -62q38 -46 38 -116q0 -38 -26 -90q-22 -42 -52 -78q-82 -97 -100 -204h-16q0 38 12 94q7 28 19 58l29 69q26 60 34 123q4 20 4 38q0 136 -115 136q-31 0 -61 -17q-35 -20 -35 -48q0 -13 12 -29q27 -34 27 -52q0 -44 -41 -44 q-53 0 -53 67zM186 162q0 30 20.5 50t48.5 20t48.5 -20t20.5 -50t-20 -50t-49 -20q-28 0 -48.5 20t-20.5 50z" />
<glyph unicode="R" horiz-adv-x="1540" d="M4 557q-13 32 -13 71q0 62 33 140q76 128 252 133q162 -3 267 -145q72 -129 72 -295q0 -17 -1 -34q176 -67 176 -303v-16q127 97 127 209q0 52 -27 107q-64 102 -64 235q4 97 80 169q75 71 192 71h3q112 -2 182 -75q71 -88 89 -231q1 -21 1 -43q0 -129 -51 -274 q-94 -280 -312 -412h-74q146 110 244 250q65 126 98 284q12 66 12 119q0 46 -9 82q-13 59 -51 111q-34 47 -123 47q-10 0 -21 -1q-80 0 -135 -79q-29 -41 -29 -91q0 -45 24 -98q51 -83 50 -166q0 -90 -60 -180q-74 -100 -194 -140l-32 55q5 41 5 76q0 163 -107 209 q-20 -170 -118 -268q-84 -70 -174 -72q-106 0 -154 106q-18 48 -18 92q0 66 40 122q52 78 137 117q59 26 135 26q39 0 82 -7v8q0 217 -166 282q-44 13 -86 13q-64 0 -126 -30q-78 -52 -78 -108q4 -81 38 -125l-42 -46q-52 44 -74 105zM224 204q0 -5 -1 -9q0 -63 51 -98 q30 -13 59 -13q58 0 114 52q76 82 84 232q-45 17 -87 17q-75 0 -141 -53q-68 -62 -79 -128z" />
<glyph unicode="S" d="M660 1210q4 84 33 144q65 132 197 184q41 15 74 14q76 0 112 -76q40 -87 39 -191q0 -43 -6 -89q-27 -202 -155 -440l-38 64q44 102 44 147v9q-11 45 -47 45q-9 0 -19 -3l-59 -20q-17 -5 -33 -5q-50 0 -91 50q-51 76 -51 155v12zM734 1200q12 -60 52 -76h11q40 0 93 24 q12 3 23 3q32 0 58 -25q25 -28 33 -100q32 46 48 226v22q0 132 -44 180q-29 29 -67 29q-23 0 -48 -10q-99 -53 -147 -156q-14 -40 -14 -83q0 -17 2 -34zM892 1306q30 20 90 62l22 -36q8 -12 31 -31t49 -19q128 0 207 160q2 -20 -23 -74q-24 -50 -43 -74q-84 -96 -177 -96 q-51 0 -99 32q-32 22 -57 76z" />
<glyph unicode="T" horiz-adv-x="2" d="M660 1210q4 84 33 144q65 132 197 184q41 15 74 14q76 0 112 -76q40 -87 39 -191q0 -43 -6 -89q-27 -202 -155 -440l-38 64q44 102 44 147v9q-11 45 -47 45q-9 0 -19 -3l-59 -20q-17 -5 -33 -5q-50 0 -91 50q-51 76 -51 155v12zM734 1200q12 -60 52 -76h11q40 0 93 24 q12 3 23 3q32 0 58 -25q25 -28 33 -100q32 46 48 226v22q0 132 -44 180q-29 29 -67 29q-23 0 -48 -10q-99 -53 -147 -156q-14 -40 -14 -83q0 -17 2 -34zM1170 1293q0 38 26 65q28 26 64 26q38 0 64 -26t26 -65q0 -38 -26 -65t-64 -27q-36 0 -63 27t-27 65z" />
<glyph unicode="U" horiz-adv-x="904" d="M98 442v70h505v-70h-505z" />
<glyph unicode="V" horiz-adv-x="694" d="M-234 718q-10 23 -10 44q0 24 14 45q23 40 81 43q49 -2 75 -26q36 -33 36 -82q0 -132 -192 -240q8 33 10 36q2 6 10 28l-1 -2q67 44 97 94q20 34 21 79l-1 7q2 -6 0 -14q-2 -6 -2 -17l-27 -19q-21 -14 -50 -14q-37 0 -61 38z" />
<glyph unicode="W" d="M742 1191q17 88 122 134q31 12 74 12q42 0 96 -11q60 -14 108 -16q87 6 146 78q40 69 40 135v6l46 -7q-26 -166 -114 -255q-81 -73 -190 -73q-45 0 -94 12q-33 10 -62 10q-56 0 -96 -38q-13 -20 -12 -42q0 -23 14 -48q34 -34 106 -42q112 8 200 85l24 -39l-186 -332 l-44 37l123 226q-73 -22 -130 -22q-66 0 -112 29q-60 45 -60 132q0 14 1 29zM1054 1456q0 38 26 65q28 27 64 27q38 0 64 -27t26 -65t-26 -65t-64 -27q-36 0 -63 27t-27 65z" />
<glyph unicode="X" horiz-adv-x="699" d="M252 490q0 38 27.5 62.5t65.5 24.5t65 -24.5t27 -62.5t-27 -62.5t-65 -24.5t-65.5 24.5t-27.5 62.5zM254 766q0 37 26.5 61t63.5 24t63.5 -24t26.5 -61t-26 -61.5t-64 -24.5t-64 24.5t-26 61.5z" />
<glyph unicode="Y" horiz-adv-x="2" d="M660 1210q4 84 33 144q65 132 197 184q41 15 74 15q76 0 112 -77q40 -87 40 -191q0 -43 -7 -89q-27 -202 -155 -440l-38 64q44 102 44 147v9q-11 45 -47 45q-9 0 -19 -3l-59 -20q-17 -5 -33 -5q-50 0 -91 50q-51 76 -51 155v12zM734 1200q12 -60 52 -76h11q41 0 93 24 q12 3 23 3q31 0 58 -25q25 -28 33 -100q32 46 48 226v22q0 132 -44 180q-29 29 -67 29q-22 0 -48 -10q-99 -53 -147 -156q-14 -40 -14 -83q0 -17 2 -34zM817 1294q0 38 26.5 64.5t63.5 26.5q38 0 64.5 -26.5t26.5 -64.5t-27 -65t-64 -27q-36 0 -63 27t-27 65z" />
<glyph unicode="Z" horiz-adv-x="802" d="M34 432q-38 78 -38 155t38 153q104 160 286 160q202 -2 289 -159q41 -77 41 -154q0 -78 -42 -157q-46 -65 -90 -99q36 -20 64 -68q21 -43 21 -83q0 -47 -28 -90q-55 -84 -121 -86q-6 -36 -19 -56h-55q10 26 14 49l-27 -5q-80 14 -105 60q-11 22 -11 46t12 49q33 51 87 51 q52 -2 84 -46q24 -41 24 -77v-5q68 16 78 106q-16 104 -106 114l-10 64q142 64 145 181q0 117 -115 193q-69 31 -135 31q-71 0 -139 -35q-96 -56 -98 -168q12 -90 56 -139q4 22 18 48q32 47 99 51q75 -4 105 -60q15 -28 15 -56t-15 -55q-36 -58 -105 -58q-33 4 -67 18 q-2 -26 9 -62l-55 -5q-12 47 -12 86v11q-49 27 -92 97zM193 378q15 -10 41 -18q22 -2 45 8q23 12 23 38q0 24 -23 36q-12 5 -23.5 5t-23.5 -5q-24 -12 -39 -64zM314 100q0 -22 19 -32q18 -8 39 -8q8 0 24 -2v9q0 43 -26 67q-9 4 -18 4q-10 0 -19 -5q-19 -11 -19 -33z" />
<glyph unicode="[" horiz-adv-x="1496" d="M28 522q18 -30 50 -68l49 51q-43 54 -47 124q12 71 72 105q88 50 188 4q78 -38 88 -128q2 -88 -44 -160q-88 -142 -8 -292q75 -136 291 -164l5 67q-50 43 -36 107q10 48 92 91l46 30q60 -53 114 -141l18 -7q-30 133 -57 189q131 70 95 207q-20 85 22 155q34 66 147 72 q86 3 129 -53q46 -71 36 -129q-12 -46 -39 -78l35 -52q75 80 76 197q0 90 -64 173q-78 78 -203 82q-104 -4 -171 -87q-84 -99 -61 -205q56 -158 -41 -212q-52 80 -172 120l-53 -103q105 -31 141 -65l-92 -53q-94 -54 -71 -205q-171 99 -139 238q48 112 80 198 q48 147 -32 271q-60 102 -203 103q-161 -6 -239 -130q-64 -106 -2 -252zM540 12h5h-5zM664 -288q30 -48 84 -52q70 -8 102 26q64 44 94 128q24 90 24 148q-6 79 -22 145q18 25 78 63l-28 57q-62 -37 -72 -49q-32 130 -129 228l-79 -20q86 -94 141 -258q-72 -62 -112.5 -106 t-78.5 -144q-32 -90 -2 -166zM738 -190q8 64 38 125q39 59 102 121l16 -70q-2 -78 -25 -156q-33 -100 -95 -105q-46 17 -36 85z" />
<glyph unicode="\" horiz-adv-x="402" d="M352 1201l42 -26q-1 22 43 59q63 33 181 -26q138 -77 221 -6q-32 -30 -88 -74q-172 -168 -271 -342q-108 -170 -110 -454q24 -343 298 -555q120 -83 216 -119l40 48q-38 54 10 66q32 7 132 -55l70 71q-70 30 -127 62q-62 29 -106 -5q-39 -41 -33 -91q-181 58 -312 282 q-104 254 -46 548q48 240 220 435q122 128 222 214l-26 45q-48 -44 -149 1q-162 92 -270 83q-92 -18 -131 -92z" />
<glyph unicode="]" horiz-adv-x="1844" d="M-11 754q59 135 217 144q134 -8 212 -154q40 -98 44 -240q8 -118 -14 -240q-14 -90 -56 -188q62 0 108.5 22t104.5 90q69 88 27 218q-28 68 -29 200q-4 107 82 198q85 91 211 92q172 2 252 -151q88 150 258 151q120 2 202 -88q92 -98 92 -230q-4 -130 -100 -230l-38 46 q56 55 60 165q2 73 -60 131q-72 60 -162 62q-82 -2 -145 -62t-75 -134l-57 -2q-11 82 -74 142t-159 56q-88 0 -146 -59t-62 -133q12 -88 28 -159q32 -108 -26 -236q-114 -153 -368 -171l-34 50q76 96 98 297q4 158 -20 254q-27 86 -96 141q-78 46 -144 3q-70 -55 -56 -140 q18 -73 60 -113l-42 -47q-58 43 -82 103q-43 92 -11 212z" />
<glyph unicode="^" d="M666 1254q-8 118 56 194q62 83 199 93q140 -12 193 -121q38 -94 24 -178q-18 -68 -58 -97l-42 49q38 28 34 112q-6 87 -81 126q-101 36 -189 -19q-66 -51 -62 -132q-1 -84 49 -139q55 -46 101 -84q60 -38 92 -108q32 -80 16 -207l-62 60q6 58 -19 118q-47 72 -137 127 q-100 76 -114 206z" />
<glyph unicode="_" d="M-372 10q10 29 21 47q-17 43 -13 92q9 72 86 93q88 18 97 58l9 33l30 1l-6 -46q-16 -96 -104 -110q-73 -13 -75 -58q1 -15 5 -27q12 17 29 21q20 5 47 -8q26 -23 18 -68q-11 -36 -50 -38q-32 2 -53 28q-7 -8 -13 -26zM-334 45l4 6q-4 0 -4 -6zM-306 56q5 -18 23 -22 q15 0 23 10q8 14 2 26q-6 10 -25 9q-13 -3 -23 -23zM-196 158q-20 -46 2 -88h36q-20 38 5 62q32 22 62 5l51 -29q48 -24 86 -2q30 20 42 51q18 44 4 87l-22 -14q8 -29 -12 -55q-30 -27 -84 5l-31 22q-23 16 -65 11q-46 -7 -74 -55z" />
<glyph unicode="`" horiz-adv-x="807" d="M-8 315q20 59 46 116q-76 153 0 302q93 165 285 167q200 0 285 -162q86 -152 19 -307q-53 -107 -171 -169q-100 -60 -105 -202v-408h-75l-2 416q0 102 41 170q45 66 133 118q124 77 126 191q0 110 -110 182q-138 57 -269 -1q-103 -68 -111 -182q-4 -18 4 -38 q48 46 104 48q82 -4 110 -58q32 -56 2 -116q-40 -56 -112 -55q-76 0 -108 49q-24 -32 -29 -88zM114 430q21 -20 50 -34q28 -10 56 0q28 14 28 40t-28 41q-28 9 -56 -1q-28 -14 -50 -46z" />
<glyph unicode="a" horiz-adv-x="1253" d="M1 60l51 -62q98 98 104 214v20q0 120 -32 180q-36 66 -38 145v11q0 68 60 124q64 60 150 60h9q88 0 149 -58q64 -60 76 -137h56q8 74 72 133.5t148 61.5q92 -1 156.5 -60.5t64.5 -134.5q-1 -111 -59 -165l41 -44q91 98 97 230q0 135 -87 227t-209 92q-120 -1 -208 -93 q-34 -26 -46 -64q-16 36 -49 66q-87 90 -207 91q-121 0 -207.5 -92t-86.5 -197q0 -132 39 -206q36 -69 36 -167v-15q-7 -92 -80 -160z" />
<glyph unicode="b" horiz-adv-x="1884" d="M-5 66l49 -62q100 100 105 210q0 139 -33 206q-36 72 -36 147q0 77 60 133q62 58 148 57q95 0 158 -58t73 -130h57q14 72 76 130q59 55 141 55h9q90 0 137 -36t87 -102q26 -68 32 -140q-154 -36 -238 -118q-80 -77 -98 -213v-14q0 -78 54 -111q39 -19 76 -19q49 0 96 33 q67 49 121 137q54 97 72 241q152 30 162 154q11 134 57 162q54 36 130 39q90 -7 129 -51q23 -54 23 -111q-10 -67 -56 -95l36 -59q88 55 105 175q1 15 1 30q0 102 -50 154q-67 90 -175 96q-159 -6 -215 -92q-49 -64 -51 -143t-20.5 -124t-80.5 -60q0 126 -88 270 q-90 138 -246 149q-131 -3 -211 -98q-31 -34 -46 -59q-16 34 -44 59q-84 92 -208 92h-5q-118 0 -202 -90q-86 -92 -86 -197q0 -134 37 -207q37 -72 37 -178q-8 -92 -79 -162zM792 158q12 68 67 136q73 82 203 110q0 -93 -54 -191q-44 -90 -120 -134q-15 -7 -30 -7l-30 7 q-30 18 -36 79z" />
<glyph unicode="c" horiz-adv-x="1272" d="M-15 541q16 179 103.5 269.5t209.5 90.5q120 0 204 -90l52 -65l45 62q87 92 209 93q118 1 207 -91q87 -89 87 -215v-6q-6 -137 -90 -237l-48 43q60 57 62 167q0 76 -65 136q-63 58 -150 58h-6q-86 0 -145 -48q-72 -56 -78 -146h-54q-12 76 -76 137q-60 57 -147 57h-11 q-86 -2 -152 -64q-62 -54 -71 -173q-1 -13 -1 -27q0 -112 65 -274q40 -72 88 -110q0 48 47 78q28 11 55 11q26 0 52 -10q49 -27 49 -82v-9q-2 -58 -48 -86q-27 -14 -57 -14q-16 0 -33 4q-8 -21 8 -50l-63 -4q-17 37 -17 72q0 7 1 14q-93 38 -168 184q-67 122 -67 266 q0 29 3 59zM288 70q12 -16 36 -18q24 0 34 18q5 10 5 19t-5 18q-10 18 -34 19q-24 -2 -36 -19q-5 -10 -5 -19t5 -18z" />
<glyph unicode="d" horiz-adv-x="2054" d="M24 526q16 -38 54 -74l49 53q-43 55 -47 123q13 73 73 106q44 25 93 25q45 0 94 -21q78 -41 88 -127v-14q0 -81 -43 -147q-46 -75 -46 -152q0 -69 37 -140q77 -136 293 -158l3 61q-45 39 -45 96v12q6 64 92 113l93 46q88 34 87 135q0 39 -13 89q-4 21 -5 40q0 61 43 113 q82 54 173 55q82 -1 145.5 -61.5t75.5 -137.5h56q10 74 72 134t148 61q94 -1 159 -60t63 -135q-1 -110 -60 -165l42 -43q88 99 96 231v6q0 130 -86 220q-88 92 -210 92q-120 0 -210 -91q-33 -29 -46 -67q-14 34 -58 76q-76 81 -196 83q-120 -3 -218 -87q-79 -87 -79 -181 q0 -23 5 -47q21 -58 21 -102q0 -75 -64 -104l-137 -74q-71 -44 -71 -125q0 -40 17 -89q-144 82 -144 193q0 21 5 43q48 116 81 201q18 55 18 107q0 86 -50 162q-59 102 -206 102q-156 -2 -237 -129q-33 -54 -33 -118q0 -60 28 -129z" />
<glyph unicode="e" horiz-adv-x="1150" d="M20 768q73 130 219 132q159 0 225 -130q35 -67 35 -142q0 -78 -38 -164q-12 -26 -40 -51q82 -19 133 -99q31 -52 30 -104q0 -53 -32 -105l-14 -22q48 16 100 45q186 119 233 387q3 23 3 53q0 52 -8 126l-36 -22q-32 -17 -64 -17q-27 0 -56 12q-58 37 -58 103q0 79 60 118 q35 15 68 15q25 0 48 -9q36 -12 75 -77q41 30 45 85h72q-16 -96 -96 -164q26 -76 26 -159q0 -154 -90 -330q-129 -243 -439 -255l-15 71q104 61 104 145q0 77 -89 119q-38 16 -79 16q-22 0 -45 -5l-13 76q44 13 82 54q40 42 42 116v5q0 102 -80 147q-40 14 -80 14 q-45 0 -90 -18q-82 -42 -80 -124q-2 -64 52 -108l-40 -52q-43 39 -66 72q-31 65 -31 129q0 59 27 117zM734 780q0 -26 22 -40q11 -5 21.5 -5t20.5 5q28 9 38 24q-18 42 -38 56q-10 5 -20.5 5t-21.5 -5q-20 -13 -22 -40z" />
<glyph unicode="f" horiz-adv-x="1177" d="M20 768q73 130 219 132q159 0 225 -130q35 -67 35 -142q0 -78 -38 -164q-12 -26 -40 -51q82 -19 133 -99q31 -52 31 -104q0 -53 -33 -105l-14 -22q48 16 100 45q186 119 233 387q3 23 3 53q0 52 -8 126l-36 -22q-32 -17 -64 -17q-28 0 -56 12q-58 37 -58 103q0 79 60 118 q35 15 68 15q25 0 48 -9q36 -12 75 -77q41 30 45 85h72q-16 -96 -96 -164q26 -76 26 -159q0 -154 -90 -330q-129 -243 -439 -255l-15 71q104 61 104 145q0 78 -89 119q-38 16 -79 16q-22 0 -45 -5l-13 76q44 13 82 54q40 42 42 116v5q0 102 -80 147q-40 14 -80 14 q-45 0 -90 -18q-82 -42 -80 -124q-2 -64 52 -108l-40 -52q-43 39 -66 72q-31 65 -31 129q0 59 27 117zM214 -62q50 97 190 130l14 -74q-56 -28 -87 -43q-47 -34 -47 -88q0 -10 2 -20q10 -66 74 -94q24 -8 48 -8q38 0 73 21l136 134q53 58 134 75q20 4 38 4q56 0 87 -44 q26 -41 26 -83q0 -26 -10 -52q-26 -49 -76 -70l-32 57q48 13 54 57q-6 43 -47 64q-9 2 -18 2q-30 0 -56 -26l-183 -176q-34 -24 -103 -36h-11q-114 0 -181 77q-37 55 -37 118q0 36 12 75zM734 780q0 -26 22 -40q11 -5 21.5 -5t20.5 5q28 9 38 24q-18 42 -38 56 q-10 5 -20.5 5t-21.5 -5q-20 -13 -22 -40z" />
<glyph unicode="g" horiz-adv-x="1354" d="M-20 574q-5 28 -5 56q0 81 43 160q92 106 234 114q166 -6 258 -148q84 -140 84 -266q62 16 84 64q20 42 20 106v20q-1 5 -1 10q0 72 49 128q54 86 214 90q108 -8 174 -94q49 -53 49 -153q0 -15 -1 -30q-18 -123 -102 -177l-37 58q46 30 55 97v12q0 51 -23 96 q-39 49 -125 55q-78 -2 -136 -42q-44 -26 -54 -160q-8 -122 -164 -152q-16 -146 -70 -242q-57 -87 -119 -137q-49 -31 -98 -31l-74 18q-53 30 -53 114v12q16 134 100 206q80 88 234 125q-10 73 -34 135q-46 104 -142 125q-39 10 -77 10q-50 0 -100 -17q-79 -32 -93 -112 q-2 -11 -2 -21q0 -56 46 -93l-50 -60q-58 52 -84 124zM250 163q6 -61 36 -79q15 -7 30 -7l30 7q76 44 120 134q52 98 54 191q-130 -27 -203 -109q-55 -68 -67 -137z" />
<glyph unicode="h" horiz-adv-x="2104" d="M-20 574q-5 28 -5 56q0 81 43 160q92 106 234 114q166 -6 258 -148q84 -140 84 -266q62 16 84 64q19 42 20 106v20q0 5 -1 10q0 72 49 128q54 86 214 90q108 -8 174 -94q49 -53 49 -153q0 -14 -1 -30q-18 -124 -93 -197l-46 78q46 30 55 97v12q0 51 -23 96 q-39 49 -125 55q-78 -2 -136 -42q-44 -26 -54 -160q-8 -122 -164 -152q-16 -146 -70 -242q-57 -87 -119 -137q-49 -31 -98 -31l-74 18q-53 30 -53 114v12q16 134 100 206q80 88 234 125q-10 73 -34 135q-46 104 -142 125q-39 10 -77 10q-50 0 -100 -17q-79 -32 -93 -112 q-2 -11 -1 -21q0 -56 45 -93l-50 -60q-58 52 -84 124zM250 163q6 -61 36 -79q30 -14 60 0q76 44 120 134q52 98 54 191q-130 -27 -203 -109q-55 -68 -67 -137zM935 132q-28 62 -28 128q0 69 31 140q56 83 106 111l45 -75q-99 -69 -101 -177q0 -114 94 -169q47 -26 94 -26 l98 28q82 44 111 140q-29 -19 -64 -19q-26 0 -55 10q-59 31 -67 103q-1 7 -1 14q0 67 62 99q37 21 69 21q33 0 63 -22q32 -26 48 -77q52 22 52 68q0 21 -11 48q-13 26 -23 44q-31 57 -31 118.5t31 127.5q80 120 229 135q163 -14 231 -129q34 -67 34 -131q0 -41 -14 -82 q-32 -64 -100 -108l-33 58q47 36 53 94q0 76 -87 120q-42 16 -84 16q-45 0 -89 -18q-86 -40 -88 -122q2 -36 22 -66q28 -30 30 -89q-4 -95 -59 -141q-17 -17 -51 -40q2 -12 2 -24q0 -55 -38 -110q-76 -130 -225 -130h-15q-164 0 -241 132zM1276 326q4 -24 18 -36 q13 -5 25 -5l19 3q22 10 38 24q-2 40 -34 54q-14 5 -27 5q-6 0 -12 -1q-25 -8 -27 -44z" />
<glyph unicode="i" horiz-adv-x="2066" d="M0 590q16 -92 68 -142l56 52q-41 53 -41 114q0 8 1 16q12 66 82 112q47 13 94 13q43 0 87 -11q98 -56 98 -131q0 -87 -105 -161l24 -54q32 14 66 14q16 0 32 -3q52 -9 87 -58q12 -35 12 -71q0 -51 -23 -104q-38 -76 -106 -102l16 -78q332 8 424 136q69 89 69 184 q0 31 -7 63q-36 102 -44 185q2 78 60 136q56 56 140 56h6h12q86 0 146 -56q64 -60 74 -136h58q10 74 72.5 133t146.5 61q93 -4 159 -62q64 -56 64 -128q0 -110 -59 -170l38 -44q93 100 97 230v6q0 128 -85 219q-87 93 -209 95q-118 -2 -212 -92q-28 -28 -42 -62 q-14 32 -50 64q-86 90 -208 91q-118 -2 -206 -95q-85 -90 -84 -190v-7v-12q0 -122 38 -196q17 -49 17 -92q0 -69 -43 -123q-78 -82 -272 -120q70 71 92 158q4 20 4 42q0 47 -18 103q-24 57 -72 85q-40 24 -60 23q-4 0 -8 -1q36 52 49 121q3 16 3 34q0 61 -33 147 q-55 120 -239 131q-156 -7 -228 -119q-45 -70 -45 -144q0 -30 7 -60z" />
<glyph unicode="j" horiz-adv-x="1851" d="M-2 225v-6q0 -93 62 -155q64 -64 148 -65q240 5 332 133q68 88 68 183q0 32 -8 64q-36 102 -43 185q2 79 61 136q56 56 140 56h6h12q87 0 146 -56q62 -60 68 -136q-2 -104 -58 -168l39 -40q91 98 97 226q1 9 1 19q0 118 -95 213q-86 90 -208 91q-118 -2 -206 -95 q-85 -90 -85 -190v-7v-12q0 -123 38 -196q18 -49 18 -93q0 -68 -43 -122q-38 -48 -94 -82q22 28 22 105v13q0 92 -60 158q-58 64 -141 64h-5h-8q-83 0 -142 -62q-63 -65 -62 -161zM83 221q2 80 62 119q31 17 62 17q29 0 59 -15q62 -42 62 -121q-2 -81 -28 -131 q-24 -4 -47 -4q-54 0 -98 23q-60 32 -72 112zM727 228v-6q0 -93 61 -155q64 -63 148 -65q240 4 332 132q68 89 68 184q0 32 -7 64q-35 102 -43 184q2 79 60 137q56 56 140 56h6h12q87 0 146 -57q63 -60 69 -136q-3 -104 -59 -168l40 -40q91 98 96 226v17q0 119 -94 215 q-86 90 -208 92q-118 -2 -206 -95q-84 -89 -84 -188v-9v-12q0 -122 38 -196q17 -49 17 -92q0 -69 -43 -124q-38 -48 -93 -82q21 28 21 105v14q0 92 -60 158q-58 63 -141 63h-5h-8q-83 0 -142 -62q-62 -64 -61 -160zM812 224q2 80 62 118q31 17 62 17q29 0 59 -15 q62 -42 62 -120q-2 -80 -29 -131q-24 -4 -46 -4q-54 0 -98 23q-60 32 -72 112z" />
<glyph unicode="k" horiz-adv-x="1873" d="M-14 540q-3 -30 -3 -59q0 -145 67 -265q72 -144 167 -180q-2 -12 -2 -24q0 -34 15 -70l64 7q-15 28 -5 52q17 -5 33 -5l57 15q45 25 45 85q1 8 1 16q0 53 -49 76q-25 9 -50 9q-28 0 -57 -11q-47 -28 -47 -73v-5q-50 38 -88 112q-65 159 -66 267q0 15 2 29q10 116 74 176 q62 62 150 62h11q89 0 165 -75q40 -39 80 -39q43 0 87 42q82 80 160 80h8q154 -25 207 -155q20 -55 32 -127q-154 -40 -242 -125q-78 -77 -92 -207q-1 -11 -1 -22q0 -80 54 -110q38 -18 76 -18q48 0 96 30q61 52 119 138q54 94 70 246q160 25 165 150q12 134 57 162 q54 38 132 40q84 -5 125 -55q24 -42 24 -87q0 -9 -1 -18q-8 -68 -56 -99l38 -60q87 59 102 179q2 19 2 36q0 95 -47 144q-67 94 -194 97q-139 -5 -199 -87q-44 -60 -44 -129v-12q1 -10 1 -20q0 -63 -22 -105q-25 -48 -87 -63v22q0 197 -85 288q-90 96 -235 106 q-122 -3 -183 -85q-30 -41 -66 -40q-36 0 -76 42q-81 84 -176 83q-124 0 -210.5 -90.5t-102.5 -270.5zM286 82q-4 9 -4 18.5t4 19.5q12 18 35 19q25 -1 35 -19t0 -38q-12 -18 -35 -18q-24 1 -35 18zM778 156q12 68 68 136q72 82 202 110q0 -94 -53 -192q-45 -90 -121 -134 q-15 -7 -30 -7l-30 7q-31 18 -36 80z" />
<glyph unicode="l" horiz-adv-x="1850" d="M-14 540q-3 -30 -3 -59q0 -145 67 -265q72 -144 167 -180q-2 -12 -2 -24q0 -34 15 -70l64 7q-15 28 -5 52q17 -5 33 -5l57 15q45 25 45 85q1 8 1 16q0 53 -49 76q-25 9 -50 9q-28 0 -57 -11q-47 -28 -47 -73v-5q-50 38 -88 112q-65 159 -66 267q0 15 2 29q10 116 74 176 q62 62 150 62h11q89 0 163 -75q39 -39 80 -39q44 0 88 42q84 80 161 80h8q154 -25 207 -155q20 -55 32 -127q-154 -40 -242 -125q-78 -77 -92 -207q-1 -9 -1 -17q0 -85 73 -125q25 -12 53 -12q47 0 100 34q61 52 119 138q54 94 70 246q160 25 165 150q12 134 57 162 q54 38 132 40q84 -5 125 -55q24 -42 24 -87q0 -9 -1 -18q-8 -68 -56 -99l38 -60q87 59 102 179q2 19 2 36q0 95 -47 144q-67 94 -194 97q-139 -5 -199 -87q-44 -60 -44 -129v-12q1 -10 1 -20q0 -63 -22 -105q-25 -48 -87 -63v22q0 197 -85 288q-90 96 -235 106 q-122 -3 -183 -85q-30 -41 -66 -40q-36 0 -76 42q-81 84 -176 83q-124 0 -210.5 -90.5t-102.5 -270.5zM286 82q-4 9 -4 18.5t4 19.5q12 18 35 19q25 -1 35 -19t0 -38q-12 -18 -35 -18q-24 1 -35 18zM585 -93q-11 -35 -11 -67q0 -58 36 -109q64 -69 170 -69h12q65 10 98 32 l175 161q26 23 54 23q8 0 16 -2q40 -20 45 -58q-5 -40 -52 -52l32 -52q48 19 72 64q9 24 9 47q0 39 -25 76q-29 41 -83 41q-16 0 -35 -4q-78 -16 -128 -68l-130 -122q-34 -19 -71 -19q-21 0 -44 6q-62 26 -71 86q-2 10 -2 19q0 49 46 79q44 41 99 85l-65 38 q-98 -46 -147 -135zM778 156q12 68 68 136q72 82 202 110q0 -94 -53 -192q-45 -90 -121 -134q-15 -7 -30 -7l-30 7q-31 18 -36 80z" />
<glyph unicode="m" horiz-adv-x="1860" d="M-14 540q-3 -30 -3 -59q0 -145 67 -265q72 -144 167 -180q-2 -12 -2 -24q0 -34 15 -70l64 7q-15 28 -5 52q17 -5 33 -5l57 15q45 25 45 85q1 8 1 16q0 53 -49 86q-27 12 -52 12q-27 0 -52 -14q-50 -38 -50 -83v-5q-50 38 -88 112q-65 159 -66 267q0 15 2 29 q10 116 74 176q62 62 150 62h12q88 0 168 -68q41 -36 82 -36q42 0 84 40q78 73 157 72h8q154 -25 207 -155q20 -55 32 -127q-154 -40 -242 -125q-78 -77 -92 -207q-1 -11 -1 -22q0 -80 54 -110q38 -18 76 -18q48 0 96 30q61 52 119 138q54 94 70 246q160 25 165 150 q12 134 57 162q54 38 132 40q84 -5 125 -55q24 -42 24 -87q0 -9 -1 -18q-8 -68 -56 -99l38 -60q87 59 102 179q2 19 2 36q0 95 -47 144q-67 94 -194 97q-139 -5 -199 -87q-44 -60 -44 -129v-12q1 -10 1 -20q0 -63 -22 -105q-25 -48 -87 -63v22q0 197 -85 288 q-90 96 -235 106q-122 -3 -183 -85q-30 -41 -66 -41q-36 1 -76 43q-81 84 -176 83q-124 0 -210.5 -90.5t-102.5 -270.5zM286 82q-4 9 -4 18.5t4 19.5q12 18 35 19q25 -1 35 -19t0 -38q-12 -18 -35 -18q-24 1 -35 18zM614 -70q-18 -45 -18 -86q0 -46 22 -89q56 -78 176 -91 q70 0 108 15l212 123q24 13 48 13q15 0 29 -5q37 -23 35 -59q-14 -36 -64 -41l22 -52q54 10 88 48q21 30 21 63q0 26 -13 53q-28 50 -104 50h-12q-84 -3 -146 -43l-158 -93q-27 -9 -53 -9q-34 0 -68 15q-59 33 -60 115q13 100 99 160l-56 48q-76 -63 -108 -135zM778 156 q12 68 68 136q72 82 202 110q0 -94 -53 -192q-45 -90 -121 -134q-30 -14 -60 0q-31 18 -36 80zM814 62q-7 -27 -7 -53q0 -55 32 -101q50 -53 128 -53q10 0 21 1q52 12 78 32l134 158q26 19 56 13q32 -14 32 -43q-4 -44 -42 -48l12 -52q48 0 77 56q8 24 8 47q0 32 -15 62 q-32 45 -92 45q-11 0 -24 -2q-42 -12 -88 -78l-100 -112q-29 -21 -62 -21q-14 0 -30 4q-50 20 -60 72q-2 10 -2 20q0 41 34 68q4 2 4 3.5t-3 1.5q-14 0 -91 -20z" />
<glyph unicode="n" horiz-adv-x="1274" d="M-62 134l68 -38q4 38 32 88q18 -68 75 -125.5t181 -57.5h4q119 0 180 111q32 56 32 113t-32 113q-52 113 -208 113q-116 -2 -198 -109q-7 50 -7 111q0 40 3 85q14 108 75 162t145 54q9 1 17 1q85 1 141 -55q62 -60 77 -136l53 -2q11 76 74.5 134t149.5 60q90 -2 154 -60 q63 -58 63 -134v-11q0 -102 -55 -153l42 -44q95 95 95 229q1 135 -87 226t-208 91h-5q-117 0 -205 -88q-34 -28 -44 -66q-18 36 -49 66q-87 88 -211 88q-120 0 -205 -93t-103 -278q-4 -44 -4 -81q0 -30 2 -56q6 -58 26 -117q-44 -73 -68 -141zM92 248q42 59 110 107 q39 18 78 18q38 0 77 -17q79 -48 79 -136q-2 -90 -79 -134q-40 -19 -78 -19q-60 0 -115 48q-46 51 -72 133z" />
<glyph unicode="o" horiz-adv-x="1403" d="M66 542q-18 47 -18 98q0 65 30 134q66 116 211 126q185 -10 225 -130q18 -52 18 -107t-18 -113q-22 -66 -52 -98q-90 -79 -90 -181v-7q0 -111 98 -168q46 -24 93 -23q49 0 99 25q80 48 111 140q-32 -20 -71 -20q-25 0 -52 8q-58 32 -68 102v8q0 72 53 102 q38 20 73.5 20.5t69.5 -20.5q42 -30 50 -92q55 33 55 80q0 24 -15 53q-14 26 -26 47q-22 45 -22 100q0 64 30 140q58 118 198 134h5q156 0 221 -124q19 -39 19 -90q0 -70 -35 -162q-16 -34 -56 -68l-44 34q48 38 48 119q-3 81 -80 123q-36 17 -71 17q-34 0 -67 -16 q-72 -37 -80 -127v-8q0 -33 15 -56q25 -38 25 -96q-4 -106 -58 -146q-22 -14 -55 -32q4 -21 4 -40q0 -58 -37 -110q-82 -119 -242 -119h-5q-157 0 -239 137q-37 75 -37 139q0 67 41 123q62 84 102 130q21 42 21 94q0 11 -1 22q-12 54 -61 87q-43 20 -85 20q-49 0 -97 -27 q-53 -30 -69 -104v-12q0 -70 44 -114l-36 -47q-54 49 -72 95zM660 340q4 -24 20 -36q14 -5 26 -4q9 0 18 2q22 2 42 14q-6 50 -38 64q-13 4 -25 4q-8 0 -15 -2q-26 -8 -28 -42z" />
<glyph unicode="p" horiz-adv-x="1544" d="M-40 592q16 -92 68 -142l48 47q-34 55 -34 115q0 10 1 21q19 61 79 100q56 21 113 21l71 -8q98 -57 98 -131q0 -87 -105 -161l25 -53q31 14 65 14q16 0 33 -3q52 -10 86 -58q12 -36 12 -73q0 -50 -22 -103q-38 -76 -106 -102l16 -77q333 7 474 161q78 85 78 209 q0 78 -31 173q-11 42 -11 75q0 60 36 92q55 49 146 49h3q74 0 122 -50q49 -52 49 -113q0 -53 -19 -99l37 -42q56 74 62 166q-1 120 -72 202q-70 72 -202 79q-100 0 -187 -91q-61 -62 -61 -146q0 -37 12 -77q35 -123 35 -214q0 -105 -47 -167q-110 -110 -325 -134 q71 70 93 158q4 21 4 44q0 47 -18 102q-24 56 -72 84q-41 24 -61 24q-4 0 -7 -1q36 52 48 121q3 15 3 32q0 61 -33 148q-49 112 -238 120q-154 -4 -228 -107q-45 -71 -45 -146q0 -29 7 -59z" />
<glyph unicode="q" horiz-adv-x="1498" d="M28 522q-31 72 -31 134q0 64 33 118q78 123 239 130q143 -1 203 -103q50 -78 50 -164q0 -52 -18 -107q-32 -86 -80 -198q-5 -22 -5 -43q0 -112 144 -195q-5 30 -5 56q0 106 76 149l164 89q72 37 72 123q0 44 -19 101q-5 22 -5 44q0 82 66 161q66 84 171 87 q125 -4 203 -82q64 -83 64 -173q0 -117 -76 -197l-35 52q27 32 39 78q2 10 2 20q0 50 -38 109q-39 53 -118 53h-11q-113 -6 -147 -72q-28 -47 -28 -102q0 -26 6 -53q8 -30 8 -57q0 -95 -99 -148l-125 -73q-82 -43 -92 -91q-3 -14 -3 -26q0 -48 39 -81l-5 -67 q-217 26 -291 164q-38 71 -38 141q0 77 46 151q44 69 44 153v7q-10 90 -88 128q-48 22 -93 22q-49 0 -95 -26q-59 -34 -72 -105q4 -70 47 -124l-49 -51q-32 38 -50 68z" />
<glyph unicode="r" horiz-adv-x="1506" d="M4 557q-13 32 -13 71q0 62 33 140q76 128 252 133q162 -3 267 -145q72 -129 72 -295q0 -17 -1 -34q176 -67 176 -303v-16q127 97 127 209q0 52 -27 107q-64 102 -64 235q4 97 80 169q75 71 192 71h3q112 -2 182 -75q69 -86 69 -197v-6q-3 -87 -63 -163l-49 42 q28 43 28 92v7q-2 59 -45 106t-137 51q-80 0 -135 -79q-29 -41 -29 -91q0 -45 24 -98q51 -83 50 -166q0 -90 -60 -180q-74 -100 -194 -140l-32 55q5 41 5 76q0 163 -107 209q-20 -170 -118 -268q-84 -70 -174 -72q-106 0 -154 106q-18 48 -18 92q0 66 40 122q52 78 137 117 q59 26 135 26q39 0 82 -7v8q0 217 -166 282q-44 13 -86 13q-64 0 -126 -30q-78 -52 -78 -108q4 -81 38 -125l-42 -46q-52 44 -74 105zM224 204q0 -5 -1 -9q0 -63 51 -98q30 -13 59 -13q58 0 114 52q76 82 84 232q-45 17 -87 17q-75 0 -141 -53q-68 -62 -79 -128z" />
<glyph unicode="s" horiz-adv-x="1491" d="M4 557q-13 32 -13 71q0 62 33 140q76 128 252 133q162 -3 267 -145q73 -132 73 -305v-27q174 -64 174 -300v-16q127 97 127 209q0 52 -27 107q-64 102 -64 235q4 97 80 169q75 71 192 71h3q112 -2 182 -75q69 -86 69 -197v-6q-3 -87 -63 -163l-49 42q28 43 28 92v7 q-2 59 -45 106t-137 51q-80 0 -135 -79q-29 -41 -29 -91q0 -45 24 -98q51 -83 50 -166q0 -90 -60 -180q-74 -100 -194 -140l-32 55q5 41 5 76q0 163 -107 209q-20 -170 -118 -268q-84 -70 -174 -72q-106 0 -154 106q-18 48 -18 92q0 66 40 122q52 78 137 117q56 25 127 25 q42 0 90 -9v8q0 220 -166 285q-44 13 -86 13q-64 0 -126 -30q-78 -52 -78 -108q4 -81 38 -125l-42 -46q-52 44 -74 105zM224 204q0 -5 -1 -9q0 -63 51 -98q30 -13 59 -13q58 0 114 52q76 82 84 232q-45 17 -87 17q-75 0 -141 -53q-68 -62 -79 -128zM540 -82q46 92 177 148 l29 -56q-70 -52 -100 -80q-42 -32 -42 -82q0 -10 2 -21q8 -63 66 -91q21 -6 41 -6q36 0 68 20l123 128q48 54 120 72q17 4 32 4q52 0 80 -43q23 -38 23 -78q0 -25 -9 -51q-24 -48 -68 -67l-29 54q44 14 49 55q-6 41 -42 61q-8 2 -16 2q-27 0 -51 -25l-165 -168 q-30 -22 -92 -34h-11q-101 0 -161 73q-35 53 -35 115q0 34 11 70z" />
<glyph unicode="t" horiz-adv-x="1508" d="M4 557q-13 32 -13 71q0 62 33 140q76 128 252 133q162 -3 267 -145q75 -132 75 -303v-25q172 -65 172 -299v-21q127 97 127 209q0 52 -27 107q-64 102 -64 235q4 97 80 169q75 71 192 71h3q112 -2 182 -75q69 -86 69 -197v-6q-3 -87 -63 -163l-49 42q28 43 28 92v7 q-2 59 -45 106t-137 51q-80 0 -135 -79q-29 -41 -29 -91q0 -45 24 -98q51 -83 50 -166q0 -90 -60 -180q-74 -100 -194 -140l-32 55q5 41 5 76q0 163 -107 209q-20 -170 -118 -268q-84 -70 -174 -72q-106 0 -154 106q-18 48 -18 92q0 66 40 122q52 78 137 117q53 23 121 24 q45 0 96 -11v8q0 223 -166 288q-44 13 -86 13q-64 0 -126 -30q-78 -52 -78 -108q4 -81 38 -125l-42 -46q-52 44 -74 105zM76 -89q48 93 183 149l31 -56q-72 -52 -104 -80q-44 -32 -45 -85q0 -9 2 -19q9 -64 69 -90q22 -6 42 -6q37 0 71 20l127 128q50 55 126 71q19 4 35 4 q53 0 81 -42q25 -38 25 -78q0 -25 -10 -51q-25 -48 -71 -68l-30 55q46 14 51 55q-7 41 -45 61q-8 2 -16 2q-27 0 -52 -25l-172 -169q-32 -21 -95 -33h-11q-105 0 -168 72q-35 53 -35 114q0 34 11 71zM224 204q0 -5 -1 -9q0 -63 51 -98q30 -13 59 -13q58 0 114 52 q76 82 84 232q-45 17 -87 17q-75 0 -141 -53q-68 -62 -79 -128z" />
<glyph unicode="u" horiz-adv-x="1612" d="M-2 225v-6q0 -93 62 -155q64 -64 148 -65q240 5 332 133q68 88 68 183q0 32 -8 64q-36 102 -43 185q3 78 61 136q57 56 140 56h6h12q88 0 146 -56q62 -60 74 -136h56q10 74 73 133t147 61q92 -4 158 -62q64 -56 64 -128q0 -110 -58 -170l38 -44q94 100 98 230v6 q0 128 -85 219q-87 93 -211 95q-118 -2 -211 -92q-29 -28 -43 -62q-14 32 -48 64q-86 90 -208 91q-118 -2 -206 -95q-85 -90 -85 -190v-7v-12q0 -122 38 -196q18 -49 18 -93q0 -68 -43 -122q-38 -48 -94 -82q22 28 22 105v13q0 92 -60 158q-58 64 -141 64h-5q-4 0 -8 1 q-82 0 -142 -63q-62 -65 -62 -161zM83 221q2 80 62 119q31 17 62 17q29 0 59 -15q62 -42 62 -121q-2 -81 -28 -131q-24 -4 -47 -4q-54 0 -98 23q-60 32 -72 112z" />
<glyph unicode="v" horiz-adv-x="1902" d="M19 349q58 105 196 105q137 -16 177 -122q18 -47 18 -100q0 -66 -28 -140q120 58 170 154q11 26 11 59q0 49 -23 113q-64 97 -64 193q0 68 32 135q62 158 262 166q190 -5 240 -148q21 -59 21 -112q0 -95 -67 -172l-52 53q17 42 17 77q0 67 -61 114q-51 25 -101 25 q-59 0 -116 -36q-72 -53 -71 -132q0 -20 4 -42q16 -66 57 -178q5 -24 5 -48q0 -95 -79 -174q-113 -121 -225 -137q-62 -10 -122 -12q-94 12 -178 104q-45 82 -45 156q0 52 22 99zM82 215q12 -79 74 -111q46 -23 101 -23q23 0 47 4q28 51 29 130q0 77 -63 119q-30 15 -60 15 l-64 -17q-62 -38 -64 -117zM826 132q-28 61 -28 128q0 76 36 158q38 68 78 116l52 -63q-82 -102 -84 -210q0 -117 100 -171q49 -26 98 -26q51 0 103 28q85 46 115 142q-31 -19 -69 -19q-26 0 -55 9q-62 30 -70 104v12q0 69 64 102q38 21 72 21q35 0 66 -23q33 -26 50 -76 q55 22 55 68q0 21 -12 48q-15 26 -25 45q-22 52 -22 114t22 134q56 133 183 133h7.5h7.5q165 0 210 -86q57 -76 56 -167q0 -6 1 -11q0 -108 -75 -188l-34 56q32 32 40 76q2 10 2 20q0 51 -42 110q-40 53 -116 53q-8 0 -16 -1q-147 -2 -169 -163q2 -35 23 -67q28 -32 32 -90 q-4 -96 -62 -142q-20 -16 -54 -40q2 -12 2 -25q0 -54 -39 -111q-80 -130 -233 -130h-18q-171 0 -252 132zM1182 329q4 -24 20 -37q14 -5 27 -5q10 0 19 3q24 12 38 25q-2 41 -34 55q-13 4 -26 4q-8 0 -16 -2q-26 -8 -28 -43z" />
<glyph unicode="w" horiz-adv-x="1397" d="M21 543q-21 46 -21 98q0 59 28 125q85 134 219 134h4h5q160 0 216 -129q34 -61 34 -121q0 -68 -44 -134q-78 -105 -78 -186v-11q8 -179 138 -229q63 -26 123 -26q67 0 131 32q112 64 114 214q-26 101 -103 200q-40 74 -40 147q0 56 23 111q83 132 218 132h4 q164 -2 225 -127q35 -67 35 -131q0 -55 -26 -108q-26 -42 -98 -86l-22 57q56 35 68 115q-5 74 -76 120q-48 26 -98 26q-52 0 -106 -28q-61 -48 -60 -122q0 -18 3 -38q20 -44 70 -116q53 -79 53 -162q0 -74 -42 -150q-66 -150 -274 -160q-212 14 -292 162q-39 84 -39 161 q0 93 57 177q38 56 50 106q1 9 1 18q0 73 -75 124q-48 25 -95 25q-51 0 -101 -30q-74 -45 -76 -119q2 -78 73 -114l-43 -52q-60 44 -83 95z" />
<glyph unicode="x" horiz-adv-x="1964" d="M18 544q27 -48 84 -96l46 53q-70 34 -72 112q0 77 73 119q52 31 103 31q47 0 94 -26q74 -50 74 -124q0 -8 -1 -17q-10 -48 -50 -106q-56 -84 -56 -178q0 -77 38 -161q83 -153 299 -161q204 9 274 164q38 83 38 155q0 85 -54 153q-60 76 -74 127q-2 14 -3 27q0 70 63 121 q56 29 123 29q57 0 122 -21q104 -95 112 -188l61 -3q6 80 69 140t151 60q90 -2 155 -60t63 -132q0 -110 -58 -166l42 -47q92 104 96 233q0 130 -86 224t-208 95q-126 -3 -214 -95q-30 -30 -42 -63q-18 37 -51 68q-86 88 -210 96q-159 -5 -251 -143q-20 -48 -20 -99 q0 -84 54 -177q86 -112 86 -204v-8q0 -114 -115 -184q-61 -29 -125 -29q-62 0 -128 27q-127 48 -138 226q-2 87 80 201q44 66 44 134q0 59 -34 120q-58 129 -221 129q-139 0 -220 -134q-30 -70 -30 -132q0 -47 17 -90z" />
<glyph unicode="y" horiz-adv-x="1499" d="M28 522q-31 72 -31 134q0 64 33 118q78 123 239 130q143 -1 203 -103q50 -78 50 -164q0 -52 -18 -107q-32 -86 -80 -198q-5 -22 -5 -43q0 -112 144 -195q-5 30 -5 56q0 106 76 149l92 53q-36 34 -141 65l53 103q120 -40 172 -120q62 34 62 110q0 44 -21 102q-5 22 -5 44 q0 82 66 161q66 84 171 87q125 -4 203 -82q64 -83 64 -173q0 -117 -76 -197l-35 52q27 32 39 78q2 10 2 20q0 50 -38 109q-39 53 -118 53h-11q-113 -6 -147 -72q-28 -47 -28 -102q0 -26 6 -53q8 -30 8 -56q0 -96 -103 -151q26 -56 36 -201l-51 -5q-17 100 -60 165l-46 -30 q-82 -43 -92 -91q-3 -14 -3 -26q0 -48 39 -81l-5 -67q-217 26 -291 164q-38 71 -38 141q0 77 46 151q44 69 44 153v7q-10 90 -88 128q-48 22 -93 22q-49 0 -95 -26q-59 -34 -72 -105q4 -70 47 -124l-49 -51q-32 38 -50 68zM559 0h4h-4z" />
<glyph unicode="z" horiz-adv-x="1499" d="M28 522q-31 72 -31 134q0 64 33 118q78 123 239 130q143 -1 203 -103q50 -78 50 -164q0 -52 -18 -107q-32 -86 -80 -198q-5 -22 -5 -43q0 -112 144 -195q-5 30 -5 56q0 106 76 149l92 53q-36 34 -141 65l53 103q120 -40 172 -120q62 34 62 110q0 44 -21 102q-5 22 -5 44 q0 82 66 161q66 84 171 87q125 -4 203 -82q64 -83 64 -173q0 -117 -76 -197l-35 52q27 32 39 78q2 10 2 20q0 50 -38 109q-39 53 -118 53h-11q-113 -6 -147 -72q-28 -47 -29 -102q0 -26 7 -53q8 -30 8 -56q0 -96 -103 -151q27 -56 79 -264l-78 4q-34 154 -76 219l-46 -30 q-82 -43 -92 -91q-3 -14 -3 -26q0 -48 39 -81l-5 -67q-217 26 -291 164q-38 71 -38 141q0 77 46 151q44 69 44 153v7q-10 90 -88 128q-48 22 -93 22q-49 0 -95 -26q-59 -34 -72 -105q4 -70 47 -124l-49 -51q-32 38 -50 68zM559 0h4h-4zM714 -132q24 96 134 206l74 -4 q-78 -100 -111 -170q-22 -50 -22 -81q0 -12 3 -21q20 -56 82 -71q7 -1 13 -1q50 0 87 34l90 142q34 60 100 88q28 12 52 12q35 0 62 -26q40 -41 40 -94q0 -11 -2 -22q-13 -48 -51 -74l-39 43q36 21 36 56v5q-13 38 -52 48h-4q-33 0 -54 -34l-123 -187q-24 -28 -80 -49 q-29 -7 -57 -7q-67 0 -121 42q-58 58 -58 144q0 10 1 21z" />
<glyph unicode="{" horiz-adv-x="1612" d="M-2 225q-2 -97 62 -161t148 -65q240 5 332 133q90 118 60 247q-36 102 -43 185q2 79 60.5 136.5t146.5 55.5q80 4 172 -79t182 -2t154 83q93 -4 158.5 -62t63.5 -132q-2 -108 -58 -166l38 -44q94 100 98 230q2 132 -85 225t-211 95q-94 -2 -171 -92t-154 1t-185 92 q-118 -2 -206 -95t-85 -197q-2 -131 38 -208q45 -126 -25 -215q-38 -48 -94 -82q24 30 22 118q0 92 -60 158t-146 64q-88 3 -150.5 -62t-61.5 -161zM83 221q2 80 62 119q60 32 121 2q62 -42 62 -121q-2 -81 -28 -131q-82 -14 -145 19q-60 32 -72 112z" />
<glyph unicode="}" horiz-adv-x="1550" d="M-44 591q19 -82 70 -141l50 48q-48 50 -42 129q14 83 88 125q98 38 195 -4q89 -55 87 -134q-3 -85 -106 -161l24 -52q49 22 107 14q58 -7 91 -87q33 -86 -20 -170q-66 34 -107 33q-39 -1 -77 -23q-36 -27 -36 -78q6 -44 32 -68q28 -20 76 -22q34 -2 72 14q36 18 60 53 q56 -45 158 -55q146 -6 230 131q102 157 30 379q-38 97 17 165.5t147 67.5q76 3 125 -47t53 -112q2 -52 -32 -100l40 -39q60 69 66 163q-2 118 -72 203q-70 69 -188 77q-126 0 -210 -114t-34 -264q70 -200 -8 -340q-112 -168 -280 -49q36 48 46 103.5t-25 143.5 q-20 53 -68.5 79.5t-69.5 24.5q26 38 41.5 134t-28.5 168q-54 108 -230 118q-157 -3 -225 -105q-69 -102 -47 -208zM354 74q-12 18 0 37q14 18 40 20q28 -1 41 -11q18 -10 27 -22q-40 -42 -68 -42q-28 1 -40 18z" />
<glyph unicode="~" horiz-adv-x="683" d="M-152 442q34 -6 75 -22q50 -14 59 -82q5 -72 -16 -94l16 -43q16 -5 40 -5q148 -1 218 136q48 104 27 184t-6.5 131t54.5 85q66 54 161 -1q56 -43 54 -117q-2 -72 -72 -108l26 -56q64 46 92 97q52 115 2 235q-60 116 -193 116q-121 0 -187 -118q-52 -116 -4 -233 q16 -40 14 -86q0 -111 -91 -161q-43 -20 -73 -26q16 70 -22 144q-76 98 -164 88z" />
<glyph unicode="&#xa0;" horiz-adv-x="1203" d="M35 708q97 176 269 186q164 -8 224 -116q66 116 229 118q175 -5 251 -154q51 -99 49 -228q-10 -336 -248 -618l-71 4q58 64 101 124q90 144 116 244q35 133 21 266q-18 132 -119 188q-100 46 -205 4q-68 -40 -94 -148h-48q-30 106 -96 139q-110 51 -214 -1 q-84 -64 -114 -178.5t44 -304.5q41 -76 85 -126q3 62 50 92q54 23 107 1q53 -30 49 -94q-1 -60 -47 -92q-40 -24 -94 -12q-1 -39 17 -74l-56 -2q-25 44 -25 107q-98 46 -164 185q-105 260 -17 490zM280 78q18 -4 41 -6q24 0 35 18q10 20 0 40q-10 19 -35 20q-23 -2 -35 -20 q-8 -20 -6 -52z" />
<glyph unicode="&#xad;" horiz-adv-x="699" d="M32 445q-62 149 0 303q88 152 242 154q172 0 242 -154q70 -151 -2 -303q-27 -50 -77 -95l-29 52q66 48 76 151q-4 107 -106 178q-106 59 -220 1q-78 -48 -86 -152q-2 -74 24 -115q26 71 113 75q69 -4 101 -61q27 -53 3 -115q-32 -62 -113 -62q-64 2 -100 53 q-10 -19 -9 -47l-57 -2q4 54 20 100q-12 18 -22 39zM125 413q21 -28 51 -46q28 -11 58 1q30 16 30 48t-30 50q-30 12 -58 -1q-30 -16 -51 -52z" />
<glyph unicode="&#xae;" horiz-adv-x="99" d="M-278 1265q-8 -93 50 -137q72 -46 202 -6l-93 -152l34 -36l149 246l-20 34q-72 -66 -168 -72q-62 6 -103 49q-19 29 13 63q52 50 132 24q142 -37 238 52q74 76 96 218l-38 6q2 -58 -34 -120q-50 -62 -123 -67q-40 2 -91 14q-92 19 -142 -1q-88 -38 -102 -115zM-140 1496 l94 30l108 40l107 41q25 10 41 0l-68 -49q-72 -52 -176 -104l-74 -42z" />
<glyph unicode="&#xc0;" horiz-adv-x="112" d="M-686 1168q39 26 114 80l27 -46q9 -16 39 -40t65 -24q161 0 262 202q3 -24 -29 -93q-30 -64 -55 -92q-106 -123 -225 -123q-66 0 -126 40q-40 26 -72 96zM-490 1354q0 42 30 71t72 29t72 -29t30 -71t-30 -71t-72 -29t-72 29t-30 71z" />
<glyph unicode="&#xc2;" horiz-adv-x="87" d="M-278 1265q-8 -93 50 -137q72 -46 202 -6l-93 -152l34 -36l149 246l-20 34q-72 -66 -168 -72q-62 6 -103 49q-19 29 13 63q52 50 132 24q142 -37 238 52q74 76 96 218l-38 6q2 -58 -34 -120q-50 -62 -123 -67q-40 2 -91 14q-92 19 -142 -1q-88 -38 -102 -115zM-74 1556 q0 42 30 71t72 29t72 -29t30 -71t-30 -71t-72 -29t-72 29t-30 71z" />
<glyph unicode="&#xc8;" horiz-adv-x="2" d="M660 1210q4 84 33 144q65 132 197 184q134 48 186 -62q56 -123 33 -280q-27 -202 -155 -440l-38 64q49 112 44 156q-14 56 -66 42l-59 -20q-70 -21 -124 45q-55 82 -51 167zM734 1200q12 -60 52 -76q44 -4 104 24q45 12 81 -22q25 -28 33 -100q32 46 48 226 q4 150 -44 202q-46 47 -115 19q-99 -53 -147 -156q-20 -56 -12 -117zM1146 1297q0 42 30 71t71 29q42 0 72 -29t30 -71t-30 -71t-72 -29t-71.5 29t-29.5 71z" />
<glyph unicode="&#xca;" d="M-410 1256q4 72 33 125q65 113 197 158q134 42 186 -53q56 -106 34 -242q-26 -174 -147 -305l-23 39q30 54 20 89q-14 37 -66 25l-59 -18q-70 -18 -124 39q-55 69 -51 143zM-346 1258q12 -52 54 -65q46 -3 112 21q48 10 87 -19q26 -23 35 -86q34 41 52 195q4 130 -48 174 q-50 41 -122 16q-106 -46 -158 -134q-22 -48 -12 -102zM-244 1339q0 36 25.5 61.5t61.5 25.5t62 -25t26 -62q0 -36 -26 -61.5t-62 -25.5t-61.5 25.5t-25.5 61.5z" />
<glyph unicode="&#xcb;" horiz-adv-x="3" d="M683 1310q13 -116 113 -185q89 -51 138 -115q26 -54 20 -106l64 -6q12 66 -19 138q-33 63 -93 98q-46 34 -100 76q-50 49 -48 124q-4 73 62 119q88 50 188 17q74 -34 80 -113q4 -76 -32 -101l41 -44q40 28 58 88q15 76 -23 159q-54 98 -194 109q-138 -8 -199 -83 q-65 -69 -56 -175zM1309 1292q0 36 25.5 61.5t61.5 25.5t62 -25.5t26 -61.5q0 -37 -26 -62t-62 -25t-61.5 25t-25.5 62z" />
<glyph unicode="&#xce;" horiz-adv-x="98" d="M-593 1148q39 26 115 80q26 -46 26 -48q12 -18 39 -38q29 -24 65 -25q160 1 262 203q3 -24 -29 -94q-31 -64 -55 -92q-106 -123 -224 -123q-66 1 -126 41q-40 28 -73 96zM-406 1266q0 6 2 85q-30 -9 406 123l-6 -16l-400 -232q-2 33 -2 40z" />
<glyph unicode="&#xcf;" horiz-adv-x="2" d="M660 1210q4 84 33 144q65 132 197 184q134 48 186 -62q56 -123 33 -280q-27 -202 -155 -440l-38 64q49 112 44 156q-14 56 -66 42l-59 -20q-70 -21 -124 45q-55 82 -51 167zM734 1200q12 -60 52 -76q44 -4 104 24q45 12 81 -22q25 -28 33 -100q32 46 48 226 q4 150 -44 202q-46 47 -115 19q-99 -53 -147 -156q-20 -56 -12 -117zM882 1304q30 20 90 64l21 -38q8 -12 31.5 -31t50.5 -19q128 0 207 160q2 -20 -23 -74q-24 -50 -43 -72q-84 -98 -178 -98q-52 0 -100 32q-32 22 -56 76z" />
<glyph unicode="&#x2000;" horiz-adv-x="828" />
<glyph unicode="&#x2001;" horiz-adv-x="1656" />
<glyph unicode="&#x2002;" horiz-adv-x="828" />
<glyph unicode="&#x2003;" horiz-adv-x="1656" />
<glyph unicode="&#x2004;" horiz-adv-x="552" />
<glyph unicode="&#x2005;" horiz-adv-x="414" />
<glyph unicode="&#x2006;" horiz-adv-x="276" />
<glyph unicode="&#x2007;" horiz-adv-x="276" />
<glyph unicode="&#x2008;" horiz-adv-x="207" />
<glyph unicode="&#x2009;" horiz-adv-x="331" />
<glyph unicode="&#x200a;" horiz-adv-x="92" />
<glyph unicode="&#x2010;" horiz-adv-x="699" d="M32 445q-62 149 0 303q88 152 242 154q172 0 242 -154q70 -151 -2 -303q-27 -50 -77 -95l-29 52q66 48 76 151q-4 107 -106 178q-106 59 -220 1q-78 -48 -86 -152q-2 -74 24 -115q26 71 113 75q69 -4 101 -61q27 -53 3 -115q-32 -62 -113 -62q-64 2 -100 53 q-10 -19 -9 -47l-57 -2q4 54 20 100q-12 18 -22 39zM125 413q21 -28 51 -46q28 -11 58 1q30 16 30 48t-30 50q-30 12 -58 -1q-30 -16 -51 -52z" />
<glyph unicode="&#x2011;" horiz-adv-x="699" d="M32 445q-62 149 0 303q88 152 242 154q172 0 242 -154q70 -151 -2 -303q-27 -50 -77 -95l-29 52q66 48 76 151q-4 107 -106 178q-106 59 -220 1q-78 -48 -86 -152q-2 -74 24 -115q26 71 113 75q69 -4 101 -61q27 -53 3 -115q-32 -62 -113 -62q-64 2 -100 53 q-10 -19 -9 -47l-57 -2q4 54 20 100q-12 18 -22 39zM125 413q21 -28 51 -46q28 -11 58 1q30 16 30 48t-30 50q-30 12 -58 -1q-30 -16 -51 -52z" />
<glyph unicode="&#x2012;" horiz-adv-x="699" d="M32 445q-62 149 0 303q88 152 242 154q172 0 242 -154q70 -151 -2 -303q-27 -50 -77 -95l-29 52q66 48 76 151q-4 107 -106 178q-106 59 -220 1q-78 -48 -86 -152q-2 -74 24 -115q26 71 113 75q69 -4 101 -61q27 -53 3 -115q-32 -62 -113 -62q-64 2 -100 53 q-10 -19 -9 -47l-57 -2q4 54 20 100q-12 18 -22 39zM125 413q21 -28 51 -46q28 -11 58 1q30 16 30 48t-30 50q-30 12 -58 -1q-30 -16 -51 -52z" />
<glyph unicode="&#x2013;" horiz-adv-x="1173" d="M59 445q-116 149 0 303q164 152 451 154q320 0 451 -154q130 -151 -4 -303q-50 -50 -144 -95l-54 52q123 48 142 151q-7 107 -197 178q-198 59 -410 1q-146 -48 -161 -152q-3 -74 45 -115q48 71 211 75q128 -4 188 -61q50 -53 5 -115q-59 -62 -210 -62q-119 2 -187 53 q-18 -19 -16 -47l-107 -2q8 54 38 100q-23 18 -41 39zM232 413q39 -28 95 -46q52 -11 108 1q56 16 56 48t-56 50q-56 12 -108 -1q-56 -16 -95 -52z" />
<glyph unicode="&#x2014;" horiz-adv-x="2197" d="M117 445q-232 149 0 303q328 152 901 154q642 0 902 -154q261 -151 -7 -303q-101 -50 -287 -95l-108 52q246 48 283 151q-15 107 -395 178q-395 59 -820 1q-291 -48 -320 -152q-8 -74 89 -115q97 71 421 75q257 -4 377 -61q100 -53 11 -115q-119 -62 -421 -62 q-239 2 -373 53q-37 -19 -34 -47l-212 -2q15 54 75 100q-45 18 -82 39zM463 413q78 -28 190 -46q105 -11 216 1q112 16 112 48t-112 50q-111 12 -216 -1q-112 -16 -190 -52z" />
<glyph unicode="&#x202f;" horiz-adv-x="331" />
<glyph unicode="&#x205f;" horiz-adv-x="414" />
<glyph unicode="&#x25fc;" horiz-adv-x="907" d="M0 0v908h908v-908h-908z" />
</font>
</defs>
</svg>
