<?xml version="1.0" encoding="iso-8859-1"?>
<!-- Generator: Adobe Illustrator 16.0.0, SVG Export Plug-In . SVG Version: 6.00 Build 0)  -->
<!DOCTYPE svg PUBLIC "-//W3C//DTD SVG 1.1//EN" "http://www.w3.org/Graphics/SVG/1.1/DTD/svg11.dtd">
<svg xmlns="http://www.w3.org/2000/svg" xmlns:xlink="http://www.w3.org/1999/xlink" version="1.1" id="Capa_1" x="0px" y="0px" width="512px" height="512px" viewBox="0 0 512 512" style="enable-background:new 0 0 512 512;" xml:space="preserve">
<g>
	<path d="M446.312,208.813C447.031,203.25,448,197.75,448,192c0-70.688-57.281-128-128-128c-41.812,0-78.594,20.344-101.938,51.375   C209.656,113.344,201,112,192,112c-61.875,0-112,50.125-112,112c0,1.75,0.438,3.313,0.5,5.063C34.094,242.719,0,285.156,0,336   c0,61.875,50.125,112,112,112h272c70.719,0,128-57.281,128-128C512,272.062,485.344,230.75,446.312,208.813z M256,384l-96-96h64   v-96h64v96h64L256,384z" fill="#f2ae30"/>
</g>
<g>
</g>
<g>
</g>
<g>
</g>
<g>
</g>
<g>
</g>
<g>
</g>
<g>
</g>
<g>
</g>
<g>
</g>
<g>
</g>
<g>
</g>
<g>
</g>
<g>
</g>
<g>
</g>
<g>
</g>
</svg>
