<?xml version="1.0" encoding="iso-8859-1"?>
<!-- Generator: Adobe Illustrator 16.0.0, SVG Export Plug-In . SVG Version: 6.00 Build 0)  -->
<!DOCTYPE svg PUBLIC "-//W3C//DTD SVG 1.1//EN" "http://www.w3.org/Graphics/SVG/1.1/DTD/svg11.dtd">
<svg version="1.1" id="Capa_1" xmlns="http://www.w3.org/2000/svg" xmlns:xlink="http://www.w3.org/1999/xlink" x="0px" y="0px"
	 width="355.768px" height="355.768px" viewBox="0 0 355.768 355.768" style="enable-background:new 0 0 355.768 355.768;"
	 xml:space="preserve">
<g>
	<g>
		<path d="M204.937,137.949c4.626-3.445,7.287-8.47,7.297-13.794c0-5.309-2.646-10.341-7.251-13.792l-68.969-51.785
			c-3.207-2.409-6.548-3.644-9.889-3.644c-6.503,0-13.091,5.2-13.091,15.138v10.506c0,1.589-1.287,2.869-2.867,2.869H22.074
			c-11.093,0-20.121,9.029-20.121,20.122v40.116c0,11.09,9.028,20.122,20.121,20.122h88.078c0.764,0,1.445,0.276,1.973,0.812
			c0.515,0.521,0.8,1.201,0.792,1.976l-0.097,11.539c-0.071,6.022,2.211,9.603,4.141,11.562c2.354,2.377,5.497,3.672,8.864,3.672
			c3.341,0,6.66-1.219,9.866-3.626L204.937,137.949z M110.159,146.56H22.074c-1.589,0-2.876-1.295-2.876-2.867v-40.116
			c0-1.572,1.287-2.869,2.876-2.869h88.078c11.083,0,20.111-9.029,20.111-20.122c0,0,0-1.066,0-2.376
			c0-1.313,2.829-0.254,6.32,2.369l51.714,38.829c3.493,2.623,3.483,6.865-0.005,9.473l-51.849,38.781
			c-3.494,2.615-6.314,3.476-6.305,1.927l0.023-2.803c0.056-5.403-1.998-10.461-5.776-14.277
			C120.602,148.654,115.539,146.56,110.159,146.56z"/>
		<path d="M240.762,166.063c-2.356-2.361-5.5-3.656-8.866-3.656c-3.341,0-6.657,1.216-9.872,3.625l-69.23,51.801
			c-4.628,3.428-7.292,8.455-7.299,13.776c0,5.327,2.648,10.359,7.254,13.812l68.966,51.766c3.21,2.427,6.551,3.646,9.892,3.646
			c6.5,0,13.092-5.199,13.092-15.138v-10.506c0-1.574,1.284-2.869,2.863-2.869h88.088c11.08,0,20.114-9.028,20.114-20.124v-40.096
			c0-11.096-9.034-20.124-20.114-20.124h-88.088c-0.756,0-1.441-0.274-1.975-0.822c-0.514-0.519-0.798-1.214-0.787-1.991
			l0.091-11.526C244.971,171.619,242.687,168.024,240.762,166.063z M335.665,209.222c1.579,0,2.869,1.279,2.869,2.869v40.101
			c0,1.59-1.29,2.884-2.869,2.884h-88.083c-11.085,0-20.118,9.029-20.118,20.104c0,0,0,1.066,0,2.376
			c0,1.315-2.824,0.254-6.317-2.366l-51.714-38.831c-3.491-2.62-3.483-6.865,0.008-9.471l51.848-38.78
			c3.494-2.615,6.312-3.469,6.303-1.92l-0.021,2.813c-0.056,5.388,1.995,10.44,5.763,14.274c3.794,3.823,8.852,5.941,14.239,5.941
			h88.093V209.222z"/>
		<path d="M122.08,249.693H7.901c-4.362,0-7.901,2.655-7.901,5.926c0,3.27,3.54,5.926,7.901,5.926h114.17
			c4.359,0,7.899-2.656,7.899-5.926C129.971,252.349,126.439,249.693,122.08,249.693z"/>
		<path d="M122.08,212.177H7.901c-4.362,0-7.901,2.656-7.901,5.926c0,3.271,3.54,5.927,7.901,5.927h114.17
			c4.359,0,7.899-2.656,7.899-5.927C129.971,214.833,126.439,212.177,122.08,212.177z"/>
		<path d="M347.877,128.075H233.699c-4.362,0-7.901,2.653-7.901,5.924c0,3.27,3.539,5.926,7.901,5.926h114.168
			c4.362,0,7.901-2.656,7.901-5.926C355.768,130.729,352.239,128.075,347.877,128.075z"/>
		<path d="M347.877,90.549H233.699c-4.362,0-7.901,2.653-7.901,5.926c0,3.27,3.539,5.923,7.901,5.923h114.168
			c4.362,0,7.901-2.653,7.901-5.923C355.768,93.202,352.239,90.549,347.877,90.549z"/>
	</g>
</g>
<g>
</g>
<g>
</g>
<g>
</g>
<g>
</g>
<g>
</g>
<g>
</g>
<g>
</g>
<g>
</g>
<g>
</g>
<g>
</g>
<g>
</g>
<g>
</g>
<g>
</g>
<g>
</g>
<g>
</g>
</svg>
