<?xml version="1.0" encoding="iso-8859-1"?>
<!-- Generator: Adobe Illustrator 18.1.1, SVG Export Plug-In . SVG Version: 6.00 Build 0)  -->
<svg xmlns="http://www.w3.org/2000/svg" xmlns:xlink="http://www.w3.org/1999/xlink" version="1.1" id="Capa_1" x="0px" y="0px" viewBox="0 0 543.906 543.906" style="enable-background:new 0 0 543.906 543.906;" xml:space="preserve" width="512px" height="512px">
<g>
	<path d="M91.654,13.758h40.793l5.249,21l4.444,15.507l3.633,15.186l3.633,15.833l2.828,13.25h1.615   l2.828-13.25l3.231-15.833l4.036-15.186l4.041-15.507l5.651-21h39.58l-42,126.007v89.489H133.66v-89.494L91.654,13.758z" fill="#FFFFFF"/>
	<path d="M263.697,66.74c31.906,0,48.06,15.186,48.06,45.231v74.314c0,30.045-16.159,45.231-48.06,45.231   s-48.06-15.186-48.06-45.231v-74.314C215.637,81.931,231.791,66.74,263.697,66.74z M263.697,92.592   c-8.485,0-12.923,5.167-12.923,14.86v83.354c0,9.372,4.846,14.865,12.923,14.865c8.077,0,12.918-5.493,12.918-14.865v-83.354   C276.614,97.759,271.774,92.592,263.697,92.592z" fill="#FFFFFF"/>
	<path d="M411.911,229.254l-2.834-13.891c-14.544,11.955-23.024,16.154-33.124,16.154   c-8.485,0-17.361-3.878-21.403-9.051c-4.444-5.493-5.662-11.308-5.662-27.783V68.682h35.142v125.033   c0,8.077,2.834,11.955,9.284,11.955c4.438,0,8.49-1.615,15.752-6.462V68.682h35.131v160.572H411.911z" fill="#FFFFFF"/>
	<path d="M94.618,258.521C42.381,258.521,0,300.903,0,353.145v82.462c0,52.237,42.381,94.542,94.618,94.542   h354.671c52.237,0,94.618-42.3,94.618-94.542v-82.462c0-52.237-42.381-94.618-94.618-94.618L94.618,258.521L94.618,258.521z    M50.893,294.931h99.535v25.493h-33.401V490.84H82.875V320.413H50.893C50.893,320.413,50.893,294.931,50.893,294.931z    M277.458,294.931h31.895v63.719c12.483-11.166,20.946-15.572,30.481-15.572c7.348,0,15.403,3.535,19.08,8.246   c4.036,5.292,5.162,10.584,5.162,26.156v81.048c0,15.273-1.126,20.532-5.162,25.814c-3.677,4.998-11.694,8.496-19.407,8.496   c-9.551,0-17.672-4.368-30.154-15.822v13.832h-31.895V294.931z M441.957,343.066c26.434,0,42.898,13.783,42.898,36.398v42.898   h-55.391v31.982c0,10.574,3.291,14.996,11.743,14.996c4.041,0,7.653-1.773,9.491-4.417c1.838-2.638,2.252-5.831,2.252-16.41v-8.822   h31.9v5.325c0.359,3.824,0.408,6.451,0.408,7.914c0,25.846-15.8,39.901-44.802,39.901c-27.533,0-42.979-14.626-42.979-41.07   v-67.879C397.476,356.272,412.221,343.066,441.957,343.066L441.957,343.066z M156.259,344.812h31.982V458.51   c0,7.348,2.54,10.824,8.414,10.824c4.036,0,7.718-1.43,14.326-5.831V344.812h31.987v146.017h-29.404l-2.584-12.662   c-13.217,10.867-20.891,14.658-30.067,14.658c-7.707,0-15.822-3.465-19.488-8.169c-4.036-4.982-5.162-10.329-5.162-25.313   L156.259,344.812L156.259,344.812z M323.679,366.563c-4.036,0-7.718,1.501-14.327,5.907v91.039   c6.614,4.411,10.291,5.831,14.327,5.831c5.874,0,8.496-3.486,8.496-10.824v-81.058   C332.175,369.832,329.553,366.563,323.679,366.563z M441.206,366.563c-7.348,0-11.743,3.824-11.743,10.568v24.655h23.486v-24.655   C452.949,370.387,448.549,366.563,441.206,366.563z" fill="#FFFFFF"/>
</g>
<g>
</g>
<g>
</g>
<g>
</g>
<g>
</g>
<g>
</g>
<g>
</g>
<g>
</g>
<g>
</g>
<g>
</g>
<g>
</g>
<g>
</g>
<g>
</g>
<g>
</g>
<g>
</g>
<g>
</g>
</svg>
